solid solidname
 facet normal -0.897461 -0.441095 0
  outer loop
    vertex 4.74251 1.07039 6.0001
    vertex 4.97102 0.605446 0.0001
    vertex 4.97102 0.605446 6.0001
  endloop
 endfacet
 facet normal -0.897461 -0.441095 -0
  outer loop
    vertex 4.97102 0.605446 0.0001
    vertex 4.74251 1.07039 6.0001
    vertex 4.74251 1.07039 0.0001
  endloop
 endfacet
 facet normal -0.752722 -0.658339 0
  outer loop
    vertex 4.40144 1.46035 6.0001
    vertex 4.74251 1.07039 0.0001
    vertex 4.74251 1.07039 6.0001
  endloop
 endfacet
 facet normal -0.752722 -0.658339 -0
  outer loop
    vertex 4.74251 1.07039 0.0001
    vertex 4.40144 1.46035 6.0001
    vertex 4.40144 1.46035 0.0001
  endloop
 endfacet
 facet normal -0.55667 -0.830734 0
  outer loop
    vertex 4.40144 1.46035 6.0001
    vertex 3.97107 1.74874 0.0001
    vertex 4.40144 1.46035 0.0001
  endloop
 endfacet
 facet normal -0.55667 -0.830734 0
  outer loop
    vertex 3.97107 1.74874 0.0001
    vertex 4.40144 1.46035 6.0001
    vertex 3.97107 1.74874 6.0001
  endloop
 endfacet
 facet normal -0.322706 -0.946499 0
  outer loop
    vertex 3.97107 1.74874 6.0001
    vertex 3.48072 1.91592 0.0001
    vertex 3.97107 1.74874 0.0001
  endloop
 endfacet
 facet normal -0.322706 -0.946499 0
  outer loop
    vertex 3.48072 1.91592 0.0001
    vertex 3.97107 1.74874 6.0001
    vertex 3.48072 1.91592 6.0001
  endloop
 endfacet
 facet normal -0.0667262 -0.997771 0
  outer loop
    vertex 3.48072 1.91592 6.0001
    vertex 2.96381 1.95049 0.0001
    vertex 3.48072 1.91592 0.0001
  endloop
 endfacet
 facet normal -0.0667262 -0.997771 0
  outer loop
    vertex 2.96381 1.95049 0.0001
    vertex 3.48072 1.91592 6.0001
    vertex 2.96381 1.95049 6.0001
  endloop
 endfacet
 facet normal 0.193788 -0.981044 0
  outer loop
    vertex 2.96381 1.95049 6.0001
    vertex 2.45556 1.8501 0.0001
    vertex 2.96381 1.95049 0.0001
  endloop
 endfacet
 facet normal 0.193788 -0.981044 0
  outer loop
    vertex 2.45556 1.8501 0.0001
    vertex 2.96381 1.95049 6.0001
    vertex 2.45556 1.8501 6.0001
  endloop
 endfacet
 facet normal 0.441095 -0.897461 0
  outer loop
    vertex 2.45556 1.8501 6.0001
    vertex 1.99062 1.62158 0.0001
    vertex 2.45556 1.8501 0.0001
  endloop
 endfacet
 facet normal 0.441095 -0.897461 0
  outer loop
    vertex 1.99062 1.62158 0.0001
    vertex 2.45556 1.8501 6.0001
    vertex 1.99062 1.62158 6.0001
  endloop
 endfacet
 facet normal 0.658339 -0.752722 0
  outer loop
    vertex 1.99062 1.62158 6.0001
    vertex 1.60065 1.28052 0.0001
    vertex 1.99062 1.62158 0.0001
  endloop
 endfacet
 facet normal 0.658339 -0.752722 0
  outer loop
    vertex 1.60065 1.28052 0.0001
    vertex 1.99062 1.62158 6.0001
    vertex 1.60065 1.28052 6.0001
  endloop
 endfacet
 facet normal 0.830734 -0.55667 0
  outer loop
    vertex 1.60065 1.28052 0.0001
    vertex 1.31226 0.850143 6.0001
    vertex 1.31226 0.850143 0.0001
  endloop
 endfacet
 facet normal 0.830734 -0.55667 0
  outer loop
    vertex 1.31226 0.850143 6.0001
    vertex 1.60065 1.28052 0.0001
    vertex 1.60065 1.28052 6.0001
  endloop
 endfacet
 facet normal 0.946499 -0.322706 0
  outer loop
    vertex 1.31226 0.850143 0.0001
    vertex 1.14508 0.359795 6.0001
    vertex 1.14508 0.359795 0.0001
  endloop
 endfacet
 facet normal 0.946499 -0.322706 0
  outer loop
    vertex 1.14508 0.359795 6.0001
    vertex 1.31226 0.850143 0.0001
    vertex 1.31226 0.850143 6.0001
  endloop
 endfacet
 facet normal 0.997771 -0.0667262 0
  outer loop
    vertex 1.14508 0.359795 0.0001
    vertex 1.11051 -0.15712 6.0001
    vertex 1.11051 -0.15712 0.0001
  endloop
 endfacet
 facet normal 0.997771 -0.0667262 0
  outer loop
    vertex 1.11051 -0.15712 6.0001
    vertex 1.14508 0.359795 0.0001
    vertex 1.14508 0.359795 6.0001
  endloop
 endfacet
 facet normal 0.981044 0.193788 0
  outer loop
    vertex 1.11051 -0.15712 0.0001
    vertex 1.21091 -0.665367 6.0001
    vertex 1.21091 -0.665367 0.0001
  endloop
 endfacet
 facet normal 0.981044 0.193788 -0
  outer loop
    vertex 1.21091 -0.665367 6.0001
    vertex 1.11051 -0.15712 0.0001
    vertex 1.11051 -0.15712 6.0001
  endloop
 endfacet
 facet normal 0.947357 0.320179 0
  outer loop
    vertex 1.21091 -0.665367 0.0001
    vertex 3.82327 -8.3949 6.0001
    vertex 3.82327 -8.3949 0.0001
  endloop
 endfacet
 facet normal 0.947357 0.320179 -0
  outer loop
    vertex 3.82327 -8.3949 6.0001
    vertex 1.21091 -0.665367 0.0001
    vertex 1.21091 -0.665367 6.0001
  endloop
 endfacet
 facet normal 0 0 -1
  outer loop
    vertex -4.79052 50.3887 0.0001
    vertex -10.1948 47.2887 0.0001
    vertex -10.1948 50.3887 0.0001
  endloop
 endfacet
 facet normal 0 0 -1
  outer loop
    vertex 2.90987 48.5262 0.0001
    vertex 2.10948 47.2887 0.0001
    vertex 2.10948 49.5647 0.0001
  endloop
 endfacet
 facet normal 0 0 -1
  outer loop
    vertex -10.1948 47.2887 0.0001
    vertex -15.2255 41.4693 0.0001
    vertex -17.1948 47.2887 0.0001
  endloop
 endfacet
 facet normal 0 -0 -1
  outer loop
    vertex -15.2255 41.4693 0.0001
    vertex -10.1948 47.2887 0.0001
    vertex 4.90198 41.4693 0.0001
  endloop
 endfacet
 facet normal 0 0 -1
  outer loop
    vertex 4.90198 41.4693 0.0001
    vertex -10.1948 47.2887 0.0001
    vertex -4.79052 47.2887 0.0001
  endloop
 endfacet
 facet normal 0 0 -1
  outer loop
    vertex -4.79052 47.2887 0.0001
    vertex -10.1948 47.2887 0.0001
    vertex -4.79052 50.3887 0.0001
  endloop
 endfacet
 facet normal 0 0 -1
  outer loop
    vertex 4.90198 41.4693 0.0001
    vertex -4.79052 47.2887 0.0001
    vertex 2.10948 47.2887 0.0001
  endloop
 endfacet
 facet normal 0 0 -1
  outer loop
    vertex 4.90198 41.4693 0.0001
    vertex 2.10948 47.2887 0.0001
    vertex 2.90987 48.5262 0.0001
  endloop
 endfacet
 facet normal 0 0 -1
  outer loop
    vertex 4.90198 41.4693 0.0001
    vertex 2.90987 48.5262 0.0001
    vertex 3.58464 47.7882 0.0001
  endloop
 endfacet
 facet normal 0 0 -1
  outer loop
    vertex 4.90198 41.4693 0.0001
    vertex 3.58464 47.7882 0.0001
    vertex 5.03438 46.8691 0.0001
  endloop
 endfacet
 facet normal 0 -0 -1
  outer loop
    vertex 4.90198 41.4693 0.0001
    vertex 5.03438 46.8691 0.0001
    vertex 5.19968 39.9828 0.0001
  endloop
 endfacet
 facet normal 0 0 -1
  outer loop
    vertex 5.19968 39.9828 0.0001
    vertex 5.03438 46.8691 0.0001
    vertex 5.58068 46.5832 0.0001
  endloop
 endfacet
 facet normal -0 0 -1
  outer loop
    vertex 8.94418 6.49361 0.0001
    vertex 9.40141 -16.5934 0.0001
    vertex 8.88377 -16.6615 0.0001
  endloop
 endfacet
 facet normal 0 0 -1
  outer loop
    vertex 9.40141 -16.5934 0.0001
    vertex 8.94418 6.49361 0.0001
    vertex 9.91904 -16.6615 0.0001
  endloop
 endfacet
 facet normal 0 0 -1
  outer loop
    vertex 9.91904 -16.6615 0.0001
    vertex 8.94418 6.49361 0.0001
    vertex 10.4014 -16.8613 0.0001
  endloop
 endfacet
 facet normal 0 0 -1
  outer loop
    vertex 10.4014 -16.8613 0.0001
    vertex 8.94418 6.49361 0.0001
    vertex 10.8156 -17.1792 0.0001
  endloop
 endfacet
 facet normal 0 0 -1
  outer loop
    vertex 10.8156 -17.1792 0.0001
    vertex 8.94418 6.49361 0.0001
    vertex 11.1335 -17.5934 0.0001
  endloop
 endfacet
 facet normal 0 0 -1
  outer loop
    vertex 11.1335 -17.5934 0.0001
    vertex 8.94418 6.49361 0.0001
    vertex 11.3093 -17.8225 0.0001
  endloop
 endfacet
 facet normal 0 0 -1
  outer loop
    vertex 11.3093 -17.8225 0.0001
    vertex 8.94418 6.49361 0.0001
    vertex 23.739 -43.5723 0.0001
  endloop
 endfacet
 facet normal 0 0 -1
  outer loop
    vertex 11.3093 -17.8225 0.0001
    vertex 23.739 -43.5723 0.0001
    vertex 18.4443 -38.5669 0.0001
  endloop
 endfacet
 facet normal 0 0 -1
  outer loop
    vertex 18.4443 -38.5669 0.0001
    vertex 23.739 -43.5723 0.0001
    vertex 18.5857 -39.0966 0.0001
  endloop
 endfacet
 facet normal -0 0 -1
  outer loop
    vertex 18.5857 -39.0966 0.0001
    vertex 23.739 -43.5723 0.0001
    vertex 18.5967 -50.3887 0.0001
  endloop
 endfacet
 facet normal 0 0 -1
  outer loop
    vertex 18.5967 -50.3887 0.0001
    vertex 23.739 -43.5723 0.0001
    vertex 20.0634 -50.1574 0.0001
  endloop
 endfacet
 facet normal 0 0 -1
  outer loop
    vertex 20.0634 -50.1574 0.0001
    vertex 23.739 -43.5723 0.0001
    vertex 20.2646 -50.068 0.0001
  endloop
 endfacet
 facet normal 0 0 -1
  outer loop
    vertex 20.2646 -50.068 0.0001
    vertex 23.739 -43.5723 0.0001
    vertex 21.4203 -49.5543 0.0001
  endloop
 endfacet
 facet normal 0 0 -1
  outer loop
    vertex 21.4203 -49.5543 0.0001
    vertex 23.739 -43.5723 0.0001
    vertex 21.8316 -49.2217 0.0001
  endloop
 endfacet
 facet normal 0 0 -1
  outer loop
    vertex 21.8316 -49.2217 0.0001
    vertex 23.739 -43.5723 0.0001
    vertex 22.5749 -48.6206 0.0001
  endloop
 endfacet
 facet normal 0 0 -1
  outer loop
    vertex 22.5749 -48.6206 0.0001
    vertex 23.739 -43.5723 0.0001
    vertex 23.4484 -47.4199 0.0001
  endloop
 endfacet
 facet normal 0 -0 -1
  outer loop
    vertex 23.4484 -47.4199 0.0001
    vertex 23.739 -43.5723 0.0001
    vertex 23.9719 -46.1246 0.0001
  endloop
 endfacet
 facet normal 0 0 -1
  outer loop
    vertex 23.9719 -46.1246 0.0001
    vertex 23.739 -43.5723 0.0001
    vertex 23.8302 -43.9408 0.0001
  endloop
 endfacet
 facet normal 0 0 -1
  outer loop
    vertex 23.9719 -46.1246 0.0001
    vertex 23.8302 -43.9408 0.0001
    vertex 23.9058 -44.3728 0.0001
  endloop
 endfacet
 facet normal 0 0 -1
  outer loop
    vertex 23.9719 -46.1246 0.0001
    vertex 23.9058 -44.3728 0.0001
    vertex 23.9606 -44.8388 0.0001
  endloop
 endfacet
 facet normal 0 0 -1
  outer loop
    vertex 23.9719 -46.1246 0.0001
    vertex 23.9606 -44.8388 0.0001
    vertex 23.991 -45.3071 0.0001
  endloop
 endfacet
 facet normal 0 0 -1
  outer loop
    vertex 23.9719 -46.1246 0.0001
    vertex 23.991 -45.3071 0.0001
    vertex 23.9815 -46.034 0.0001
  endloop
 endfacet
 facet normal 0 -0 -1
  outer loop
    vertex 23.9815 -46.034 0.0001
    vertex 23.991 -45.3071 0.0001
    vertex 23.9948 -45.7456 0.0001
  endloop
 endfacet
 facet normal -0 -0 -1
  outer loop
    vertex -23.9948 50.3887 0.0001
    vertex -17.1948 47.2887 0.0001
    vertex 12.9967 -46.3145 0.0001
  endloop
 endfacet
 facet normal 0 0 -1
  outer loop
    vertex -17.1948 47.2887 0.0001
    vertex -23.9948 50.3887 0.0001
    vertex -17.1948 50.3887 0.0001
  endloop
 endfacet
 facet normal 0 0 -1
  outer loop
    vertex 12.9967 -46.3145 0.0001
    vertex -17.1948 47.2887 0.0001
    vertex -15.2255 41.4693 0.0001
  endloop
 endfacet
 facet normal 0 0 -1
  outer loop
    vertex 12.9967 -46.3145 0.0001
    vertex -15.2255 41.4693 0.0001
    vertex -12.4318 34.2831 0.0001
  endloop
 endfacet
 facet normal 0 0 -1
  outer loop
    vertex 12.9967 -46.3145 0.0001
    vertex -12.4318 34.2831 0.0001
    vertex -12.1198 33.597 0.0001
  endloop
 endfacet
 facet normal 0 0 -1
  outer loop
    vertex 12.9967 -46.3145 0.0001
    vertex -12.1198 33.597 0.0001
    vertex -11.6479 33.0094 0.0001
  endloop
 endfacet
 facet normal 0 0 -1
  outer loop
    vertex 12.9967 -46.3145 0.0001
    vertex -11.6479 33.0094 0.0001
    vertex -10.9394 32.4991 0.0001
  endloop
 endfacet
 facet normal 0 0 -1
  outer loop
    vertex 12.9967 -46.3145 0.0001
    vertex -10.9394 32.4991 0.0001
    vertex -7.59932 21.744 0.0001
  endloop
 endfacet
 facet normal 0 0 -1
  outer loop
    vertex -7.59932 21.744 0.0001
    vertex -10.9394 32.4991 0.0001
    vertex -10.7112 32.3924 0.0001
  endloop
 endfacet
 facet normal 0 0 -1
  outer loop
    vertex -7.59932 21.744 0.0001
    vertex -10.7112 32.3924 0.0001
    vertex -7.60661 22.3472 0.0001
  endloop
 endfacet
 facet normal 0 0 -1
  outer loop
    vertex 12.9967 -46.3145 0.0001
    vertex -7.59932 21.744 0.0001
    vertex -3.16009 9.26487 0.0001
  endloop
 endfacet
 facet normal 0 0 -1
  outer loop
    vertex 12.9967 -46.3145 0.0001
    vertex -3.16009 9.26487 0.0001
    vertex -2.94349 8.77604 0.0001
  endloop
 endfacet
 facet normal 0 0 -1
  outer loop
    vertex 12.9967 -46.3145 0.0001
    vertex -2.94349 8.77604 0.0001
    vertex -2.62782 8.34456 0.0001
  endloop
 endfacet
 facet normal 0 0 -1
  outer loop
    vertex 12.9967 -46.3145 0.0001
    vertex -2.62782 8.34456 0.0001
    vertex -1.88779 7.7873 0.0001
  endloop
 endfacet
 facet normal 0 0 -1
  outer loop
    vertex 12.9967 -46.3145 0.0001
    vertex -1.88779 7.7873 0.0001
    vertex -1.3858 7.6032 0.0001
  endloop
 endfacet
 facet normal 0 0 -1
  outer loop
    vertex 12.9967 -46.3145 0.0001
    vertex -1.3858 7.6032 0.0001
    vertex -0.920319 7.5303 0.0001
  endloop
 endfacet
 facet normal 0 0 -1
  outer loop
    vertex 12.9967 -46.3145 0.0001
    vertex -0.920319 7.5303 0.0001
    vertex 1.21091 -0.665367 0.0001
  endloop
 endfacet
 facet normal 0 0 -1
  outer loop
    vertex 1.21091 -0.665367 0.0001
    vertex -0.920319 7.5303 0.0001
    vertex 1.11051 -0.15712 0.0001
  endloop
 endfacet
 facet normal 0 0 -1
  outer loop
    vertex 12.9967 -46.3145 0.0001
    vertex 1.21091 -0.665367 0.0001
    vertex 3.82327 -8.3949 0.0001
  endloop
 endfacet
 facet normal 0 0 -1
  outer loop
    vertex 12.9967 -46.3145 0.0001
    vertex 3.82327 -8.3949 0.0001
    vertex 4.08253 -8.73278 0.0001
  endloop
 endfacet
 facet normal 0 0 -1
  outer loop
    vertex 12.9967 -46.3145 0.0001
    vertex 4.08253 -8.73278 0.0001
    vertex 4.51795 -9.06689 0.0001
  endloop
 endfacet
 facet normal 0 0 -1
  outer loop
    vertex 12.9967 -46.3145 0.0001
    vertex 4.51795 -9.06689 0.0001
    vertex 5.02502 -9.27692 0.0001
  endloop
 endfacet
 facet normal 0 0 -1
  outer loop
    vertex 12.9967 -46.3145 0.0001
    vertex 5.02502 -9.27692 0.0001
    vertex 7.46956 -19.111 0.0001
  endloop
 endfacet
 facet normal 0 0 -1
  outer loop
    vertex 7.46956 -19.111 0.0001
    vertex 5.02502 -9.27692 0.0001
    vertex 5.56916 -9.34856 0.0001
  endloop
 endfacet
 facet normal 0 0 -1
  outer loop
    vertex 7.46956 -19.111 0.0001
    vertex 5.56916 -9.34856 0.0001
    vertex 6.1133 -9.27692 0.0001
  endloop
 endfacet
 facet normal 0 0 -1
  outer loop
    vertex 7.46956 -19.111 0.0001
    vertex 6.1133 -9.27692 0.0001
    vertex 7.40141 -18.5934 0.0001
  endloop
 endfacet
 facet normal 0 0 -1
  outer loop
    vertex 7.40141 -18.5934 0.0001
    vertex 6.1133 -9.27692 0.0001
    vertex 6.24939 -9.22055 0.0001
  endloop
 endfacet
 facet normal 0 0 -1
  outer loop
    vertex 7.40141 -18.5934 0.0001
    vertex 6.24939 -9.22055 0.0001
    vertex 6.62036 -9.06689 0.0001
  endloop
 endfacet
 facet normal 0 0 -1
  outer loop
    vertex 7.40141 -18.5934 0.0001
    vertex 6.62036 -9.06689 0.0001
    vertex 7.05579 -8.73278 0.0001
  endloop
 endfacet
 facet normal 0 0 -1
  outer loop
    vertex 7.40141 -18.5934 0.0001
    vertex 7.05579 -8.73278 0.0001
    vertex 7.3899 -8.29736 0.0001
  endloop
 endfacet
 facet normal 0 0 -1
  outer loop
    vertex 12.9967 -46.3145 0.0001
    vertex 7.46956 -19.111 0.0001
    vertex 14.5624 -40.1701 0.0001
  endloop
 endfacet
 facet normal 0 0 -1
  outer loop
    vertex 12.9967 -46.3145 0.0001
    vertex 14.5624 -40.1701 0.0001
    vertex 13.5998 -47.6714 0.0001
  endloop
 endfacet
 facet normal 0 0 -1
  outer loop
    vertex 13.5998 -47.6714 0.0001
    vertex 14.5624 -40.1701 0.0001
    vertex 14.5335 -48.826 0.0001
  endloop
 endfacet
 facet normal 0 -0 -1
  outer loop
    vertex 14.5335 -48.826 0.0001
    vertex 14.5624 -40.1701 0.0001
    vertex 15.7342 -49.6995 0.0001
  endloop
 endfacet
 facet normal 0 0 -1
  outer loop
    vertex 15.7342 -49.6995 0.0001
    vertex 14.5624 -40.1701 0.0001
    vertex 14.836 -40.6451 0.0001
  endloop
 endfacet
 facet normal 0 0 -1
  outer loop
    vertex 15.7342 -49.6995 0.0001
    vertex 14.836 -40.6451 0.0001
    vertex 15.1304 -40.9402 0.0001
  endloop
 endfacet
 facet normal 0 0 -1
  outer loop
    vertex 15.7342 -49.6995 0.0001
    vertex 15.1304 -40.9402 0.0001
    vertex 15.6977 -41.3078 0.0001
  endloop
 endfacet
 facet normal 0 0 -1
  outer loop
    vertex 15.7342 -49.6995 0.0001
    vertex 15.6977 -41.3078 0.0001
    vertex 16.2271 -41.4502 0.0001
  endloop
 endfacet
 facet normal 0 -0 -1
  outer loop
    vertex 15.7342 -49.6995 0.0001
    vertex 16.2271 -41.4502 0.0001
    vertex 17.1201 -50.2325 0.0001
  endloop
 endfacet
 facet normal 0 0 -1
  outer loop
    vertex 17.1201 -50.2325 0.0001
    vertex 16.2271 -41.4502 0.0001
    vertex 16.7753 -41.4508 0.0001
  endloop
 endfacet
 facet normal 0 0 -1
  outer loop
    vertex 17.1201 -50.2325 0.0001
    vertex 16.7753 -41.4508 0.0001
    vertex 17.3049 -41.3095 0.0001
  endloop
 endfacet
 facet normal 0 -0 -1
  outer loop
    vertex 17.1201 -50.2325 0.0001
    vertex 17.3049 -41.3095 0.0001
    vertex 18.4424 -50.3644 0.0001
  endloop
 endfacet
 facet normal 0 0 -1
  outer loop
    vertex 18.4424 -50.3644 0.0001
    vertex 17.3049 -41.3095 0.0001
    vertex 17.78 -41.0359 0.0001
  endloop
 endfacet
 facet normal 0 0 -1
  outer loop
    vertex 18.4424 -50.3644 0.0001
    vertex 17.78 -41.0359 0.0001
    vertex 18.1681 -40.6486 0.0001
  endloop
 endfacet
 facet normal 0 0 -1
  outer loop
    vertex 18.4424 -50.3644 0.0001
    vertex 18.1681 -40.6486 0.0001
    vertex 18.4427 -40.1742 0.0001
  endloop
 endfacet
 facet normal 0 -0 -1
  outer loop
    vertex 18.4424 -50.3644 0.0001
    vertex 18.4427 -40.1742 0.0001
    vertex 18.5967 -50.3887 0.0001
  endloop
 endfacet
 facet normal 0 0 -1
  outer loop
    vertex 18.5967 -50.3887 0.0001
    vertex 18.4427 -40.1742 0.0001
    vertex 18.5851 -39.6448 0.0001
  endloop
 endfacet
 facet normal 0 0 -1
  outer loop
    vertex 18.5967 -50.3887 0.0001
    vertex 18.5851 -39.6448 0.0001
    vertex 18.5857 -39.0966 0.0001
  endloop
 endfacet
 facet normal -0 0 -1
  outer loop
    vertex -10.7112 32.3924 0.0001
    vertex -7.53151 22.8278 0.0001
    vertex -7.60661 22.3472 0.0001
  endloop
 endfacet
 facet normal 0 0 -1
  outer loop
    vertex -7.53151 22.8278 0.0001
    vertex -10.7112 32.3924 0.0001
    vertex -7.38084 23.2904 0.0001
  endloop
 endfacet
 facet normal 0 0 -1
  outer loop
    vertex -7.38084 23.2904 0.0001
    vertex -10.7112 32.3924 0.0001
    vertex -7.15852 23.7231 0.0001
  endloop
 endfacet
 facet normal 0 0 -1
  outer loop
    vertex -7.15852 23.7231 0.0001
    vertex -10.7112 32.3924 0.0001
    vertex -6.87016 24.1149 0.0001
  endloop
 endfacet
 facet normal 0 0 -1
  outer loop
    vertex -6.87016 24.1149 0.0001
    vertex -10.7112 32.3924 0.0001
    vertex -6.61572 24.3846 0.0001
  endloop
 endfacet
 facet normal 0 0 -1
  outer loop
    vertex -6.61572 24.3846 0.0001
    vertex -10.7112 32.3924 0.0001
    vertex -6.32158 24.6104 0.0001
  endloop
 endfacet
 facet normal 0 0 -1
  outer loop
    vertex -6.32158 24.6104 0.0001
    vertex -10.7112 32.3924 0.0001
    vertex -5.90262 24.8576 0.0001
  endloop
 endfacet
 facet normal 0 0 -1
  outer loop
    vertex -5.90262 24.8576 0.0001
    vertex -10.7112 32.3924 0.0001
    vertex 1.29898 28.2372 0.0001
  endloop
 endfacet
 facet normal 0 0 -1
  outer loop
    vertex -5.90262 24.8576 0.0001
    vertex 1.29898 28.2372 0.0001
    vertex -5.44971 25.0351 0.0001
  endloop
 endfacet
 facet normal 0 0 -1
  outer loop
    vertex -5.44971 25.0351 0.0001
    vertex 1.29898 28.2372 0.0001
    vertex -4.97426 25.1381 0.0001
  endloop
 endfacet
 facet normal 0 0 -1
  outer loop
    vertex -4.97426 25.1381 0.0001
    vertex 1.29898 28.2372 0.0001
    vertex -4.37172 25.1661 0.0001
  endloop
 endfacet
 facet normal 0 -0 -1
  outer loop
    vertex -4.37172 25.1661 0.0001
    vertex 1.29898 28.2372 0.0001
    vertex 2.95364 22.7685 0.0001
  endloop
 endfacet
 facet normal 0 0 -1
  outer loop
    vertex 2.95364 22.7685 0.0001
    vertex 1.29898 28.2372 0.0001
    vertex 2.04941 28.1308 0.0001
  endloop
 endfacet
 facet normal 0 0 -1
  outer loop
    vertex 2.95364 22.7685 0.0001
    vertex 2.04941 28.1308 0.0001
    vertex 2.47944 28.1568 0.0001
  endloop
 endfacet
 facet normal 0 0 -1
  outer loop
    vertex 2.95364 22.7685 0.0001
    vertex 2.47944 28.1568 0.0001
    vertex 2.90063 28.2475 0.0001
  endloop
 endfacet
 facet normal 0 0 -1
  outer loop
    vertex 2.95364 22.7685 0.0001
    vertex 2.90063 28.2475 0.0001
    vertex 3.30331 28.4007 0.0001
  endloop
 endfacet
 facet normal 0 -0 -1
  outer loop
    vertex 2.95364 22.7685 0.0001
    vertex 3.30331 28.4007 0.0001
    vertex 3.67352 22.3685 0.0001
  endloop
 endfacet
 facet normal 0 0 -1
  outer loop
    vertex 3.67352 22.3685 0.0001
    vertex 3.30331 28.4007 0.0001
    vertex 3.67819 28.6131 0.0001
  endloop
 endfacet
 facet normal 0 -0 -1
  outer loop
    vertex 3.67352 22.3685 0.0001
    vertex 3.67819 28.6131 0.0001
    vertex 3.88151 22.1879 0.0001
  endloop
 endfacet
 facet normal 0 0 -1
  outer loop
    vertex 3.88151 22.1879 0.0001
    vertex 3.67819 28.6131 0.0001
    vertex 4.09568 28.9464 0.0001
  endloop
 endfacet
 facet normal 0 -0 -1
  outer loop
    vertex 3.88151 22.1879 0.0001
    vertex 4.09568 28.9464 0.0001
    vertex 4.41108 21.4737 0.0001
  endloop
 endfacet
 facet normal 0 0 -1
  outer loop
    vertex 4.41108 21.4737 0.0001
    vertex 4.09568 28.9464 0.0001
    vertex 4.37908 29.2721 0.0001
  endloop
 endfacet
 facet normal 0 0 -1
  outer loop
    vertex 4.41108 21.4737 0.0001
    vertex 4.37908 29.2721 0.0001
    vertex 4.61008 29.6369 0.0001
  endloop
 endfacet
 facet normal 0 -0 -1
  outer loop
    vertex 4.41108 21.4737 0.0001
    vertex 4.61008 29.6369 0.0001
    vertex 4.66308 20.6889 0.0001
  endloop
 endfacet
 facet normal 0 0 -1
  outer loop
    vertex 4.66308 20.6889 0.0001
    vertex 4.61008 29.6369 0.0001
    vertex 4.78338 30.0323 0.0001
  endloop
 endfacet
 facet normal 0 0 -1
  outer loop
    vertex 4.66308 20.6889 0.0001
    vertex 4.78338 30.0323 0.0001
    vertex 4.69138 20.4146 0.0001
  endloop
 endfacet
 facet normal 0 0 -1
  outer loop
    vertex 4.69138 20.4146 0.0001
    vertex 4.78338 30.0323 0.0001
    vertex 4.74251 1.07039 0.0001
  endloop
 endfacet
 facet normal 0 -0 -1
  outer loop
    vertex 4.74251 1.07039 0.0001
    vertex 4.78338 30.0323 0.0001
    vertex 4.97102 0.605446 0.0001
  endloop
 endfacet
 facet normal 0 0 -1
  outer loop
    vertex 4.97102 0.605446 0.0001
    vertex 4.78338 30.0323 0.0001
    vertex 4.89498 30.4494 0.0001
  endloop
 endfacet
 facet normal 0 0 -1
  outer loop
    vertex 4.97102 0.605446 0.0001
    vertex 4.89498 30.4494 0.0001
    vertex 4.93095 30.7757 0.0001
  endloop
 endfacet
 facet normal 0 0 -1
  outer loop
    vertex 4.97102 0.605446 0.0001
    vertex 4.93095 30.7757 0.0001
    vertex 5.19968 39.9828 0.0001
  endloop
 endfacet
 facet normal 0 -0 -1
  outer loop
    vertex 4.97102 0.605446 0.0001
    vertex 5.19968 39.9828 0.0001
    vertex 7.67157 -7.24615 0.0001
  endloop
 endfacet
 facet normal 0 0 -1
  outer loop
    vertex 7.67157 -7.24615 0.0001
    vertex 5.19968 39.9828 0.0001
    vertex 5.58068 46.5832 0.0001
  endloop
 endfacet
 facet normal 0 0 -1
  outer loop
    vertex 7.67157 -7.24615 0.0001
    vertex 5.58068 46.5832 0.0001
    vertex 6.14868 46.3434 0.0001
  endloop
 endfacet
 facet normal 0 0 -1
  outer loop
    vertex 7.67157 -7.24615 0.0001
    vertex 6.14868 46.3434 0.0001
    vertex 6.73448 46.1514 0.0001
  endloop
 endfacet
 facet normal 0 0 -1
  outer loop
    vertex 7.67157 -7.24615 0.0001
    vertex 6.73448 46.1514 0.0001
    vertex 10.2217 45.5265 0.0001
  endloop
 endfacet
 facet normal 0 0 -1
  outer loop
    vertex 7.67157 -7.24615 0.0001
    vertex 10.2217 45.5265 0.0001
    vertex 7.9872 -17.1792 0.0001
  endloop
 endfacet
 facet normal 0 0 -1
  outer loop
    vertex 7.9872 -17.1792 0.0001
    vertex 10.2217 45.5265 0.0001
    vertex 8.94418 6.49361 0.0001
  endloop
 endfacet
 facet normal 0 0 -1
  outer loop
    vertex 7.9872 -17.1792 0.0001
    vertex 8.94418 6.49361 0.0001
    vertex 8.40141 -16.8613 0.0001
  endloop
 endfacet
 facet normal 0 0 -1
  outer loop
    vertex 8.40141 -16.8613 0.0001
    vertex 8.94418 6.49361 0.0001
    vertex 8.88377 -16.6615 0.0001
  endloop
 endfacet
 facet normal 0 0 -1
  outer loop
    vertex 7.59993 -7.79029 0.0001
    vertex 7.40141 -18.5934 0.0001
    vertex 7.3899 -8.29736 0.0001
  endloop
 endfacet
 facet normal 0 0 -1
  outer loop
    vertex 7.40141 -18.5934 0.0001
    vertex 7.59993 -7.79029 0.0001
    vertex 7.46956 -18.0757 0.0001
  endloop
 endfacet
 facet normal 0 -0 -1
  outer loop
    vertex 7.46956 -18.0757 0.0001
    vertex 7.59993 -7.79029 0.0001
    vertex 7.66936 -17.5934 0.0001
  endloop
 endfacet
 facet normal 0 0 -1
  outer loop
    vertex 7.66936 -17.5934 0.0001
    vertex 7.59993 -7.79029 0.0001
    vertex 7.67157 -7.24615 0.0001
  endloop
 endfacet
 facet normal 0 -0 -1
  outer loop
    vertex 7.66936 -17.5934 0.0001
    vertex 7.67157 -7.24615 0.0001
    vertex 7.9872 -17.1792 0.0001
  endloop
 endfacet
 facet normal -0 0 -1
  outer loop
    vertex -0.920319 7.5303 0.0001
    vertex 1.14508 0.359795 0.0001
    vertex 1.11051 -0.15712 0.0001
  endloop
 endfacet
 facet normal 0 0 -1
  outer loop
    vertex 1.14508 0.359795 0.0001
    vertex -0.920319 7.5303 0.0001
    vertex 2.73208 7.7193 0.0001
  endloop
 endfacet
 facet normal 0 0 -1
  outer loop
    vertex 1.14508 0.359795 0.0001
    vertex 2.73208 7.7193 0.0001
    vertex 1.31226 0.850143 0.0001
  endloop
 endfacet
 facet normal 0 0 -1
  outer loop
    vertex 1.31226 0.850143 0.0001
    vertex 2.73208 7.7193 0.0001
    vertex 1.60065 1.28052 0.0001
  endloop
 endfacet
 facet normal 0 0 -1
  outer loop
    vertex 1.60065 1.28052 0.0001
    vertex 2.73208 7.7193 0.0001
    vertex 1.99062 1.62158 0.0001
  endloop
 endfacet
 facet normal 0 0 -1
  outer loop
    vertex 1.99062 1.62158 0.0001
    vertex 2.73208 7.7193 0.0001
    vertex 2.45556 1.8501 0.0001
  endloop
 endfacet
 facet normal 0 -0 -1
  outer loop
    vertex 2.45556 1.8501 0.0001
    vertex 2.73208 7.7193 0.0001
    vertex 2.96381 1.95049 0.0001
  endloop
 endfacet
 facet normal 0 0 -1
  outer loop
    vertex 2.96381 1.95049 0.0001
    vertex 2.73208 7.7193 0.0001
    vertex 3.44748 8.2169 0.0001
  endloop
 endfacet
 facet normal 0 -0 -1
  outer loop
    vertex 2.96381 1.95049 0.0001
    vertex 3.44748 8.2169 0.0001
    vertex 3.48072 1.91592 0.0001
  endloop
 endfacet
 facet normal 0 0 -1
  outer loop
    vertex 3.48072 1.91592 0.0001
    vertex 3.44748 8.2169 0.0001
    vertex 3.64968 8.4268 0.0001
  endloop
 endfacet
 facet normal 0 -0 -1
  outer loop
    vertex 3.48072 1.91592 0.0001
    vertex 3.64968 8.4268 0.0001
    vertex 3.97107 1.74874 0.0001
  endloop
 endfacet
 facet normal 0 0 -1
  outer loop
    vertex 3.97107 1.74874 0.0001
    vertex 3.64968 8.4268 0.0001
    vertex 3.98778 8.9007 0.0001
  endloop
 endfacet
 facet normal 0 -0 -1
  outer loop
    vertex 3.97107 1.74874 0.0001
    vertex 3.98778 8.9007 0.0001
    vertex 4.40144 1.46035 0.0001
  endloop
 endfacet
 facet normal 0 0 -1
  outer loop
    vertex 4.40144 1.46035 0.0001
    vertex 3.98778 8.9007 0.0001
    vertex 4.30658 9.7117 0.0001
  endloop
 endfacet
 facet normal 0 0 -1
  outer loop
    vertex 4.40144 1.46035 0.0001
    vertex 4.30658 9.7117 0.0001
    vertex 4.38158 10.289 0.0001
  endloop
 endfacet
 facet normal 0 0 -1
  outer loop
    vertex 4.40144 1.46035 0.0001
    vertex 4.38158 10.289 0.0001
    vertex 4.69138 20.4146 0.0001
  endloop
 endfacet
 facet normal 0 -0 -1
  outer loop
    vertex 4.40144 1.46035 0.0001
    vertex 4.69138 20.4146 0.0001
    vertex 4.74251 1.07039 0.0001
  endloop
 endfacet
 facet normal 0.79335 0.608766 0
  outer loop
    vertex 3.82327 -8.3949 0.0001
    vertex 4.08253 -8.73278 6.0001
    vertex 4.08253 -8.73278 0.0001
  endloop
 endfacet
 facet normal 0.79335 0.608766 -0
  outer loop
    vertex 4.08253 -8.73278 6.0001
    vertex 3.82327 -8.3949 0.0001
    vertex 3.82327 -8.3949 6.0001
  endloop
 endfacet
 facet normal 0.60876 0.793354 0
  outer loop
    vertex 4.08253 -8.73278 6.0001
    vertex 4.51795 -9.06689 0.0001
    vertex 4.08253 -8.73278 0.0001
  endloop
 endfacet
 facet normal 0.60876 0.793354 0
  outer loop
    vertex 4.51795 -9.06689 0.0001
    vertex 4.08253 -8.73278 6.0001
    vertex 4.51795 -9.06689 6.0001
  endloop
 endfacet
 facet normal 0.38269 0.923877 0
  outer loop
    vertex 4.51795 -9.06689 6.0001
    vertex 5.02502 -9.27692 0.0001
    vertex 4.51795 -9.06689 0.0001
  endloop
 endfacet
 facet normal 0.38269 0.923877 0
  outer loop
    vertex 5.02502 -9.27692 0.0001
    vertex 4.51795 -9.06689 6.0001
    vertex 5.02502 -9.27692 6.0001
  endloop
 endfacet
 facet normal 0.130516 0.991446 0
  outer loop
    vertex 5.02502 -9.27692 6.0001
    vertex 5.56916 -9.34856 0.0001
    vertex 5.02502 -9.27692 0.0001
  endloop
 endfacet
 facet normal 0.130516 0.991446 0
  outer loop
    vertex 5.56916 -9.34856 0.0001
    vertex 5.02502 -9.27692 6.0001
    vertex 5.56916 -9.34856 6.0001
  endloop
 endfacet
 facet normal -0.130516 0.991446 0
  outer loop
    vertex 5.56916 -9.34856 6.0001
    vertex 6.1133 -9.27692 0.0001
    vertex 5.56916 -9.34856 0.0001
  endloop
 endfacet
 facet normal -0.130516 0.991446 0
  outer loop
    vertex 6.1133 -9.27692 0.0001
    vertex 5.56916 -9.34856 6.0001
    vertex 6.1133 -9.27692 6.0001
  endloop
 endfacet
 facet normal -0.382713 0.923867 0
  outer loop
    vertex 6.1133 -9.27692 6.0001
    vertex 6.24939 -9.22055 0.0001
    vertex 6.1133 -9.27692 0.0001
  endloop
 endfacet
 facet normal -0.382713 0.923867 0
  outer loop
    vertex 6.24939 -9.22055 0.0001
    vertex 6.1133 -9.27692 6.0001
    vertex 6.24939 -9.22055 6.0001
  endloop
 endfacet
 facet normal -0.382688 0.923878 0
  outer loop
    vertex 6.24939 -9.22055 6.0001
    vertex 6.62036 -9.06689 0.0001
    vertex 6.24939 -9.22055 0.0001
  endloop
 endfacet
 facet normal -0.382688 0.923878 0
  outer loop
    vertex 6.62036 -9.06689 0.0001
    vertex 6.24939 -9.22055 6.0001
    vertex 6.62036 -9.06689 6.0001
  endloop
 endfacet
 facet normal -0.608754 0.793359 0
  outer loop
    vertex 6.62036 -9.06689 6.0001
    vertex 7.05579 -8.73278 0.0001
    vertex 6.62036 -9.06689 0.0001
  endloop
 endfacet
 facet normal -0.608754 0.793359 0
  outer loop
    vertex 7.05579 -8.73278 0.0001
    vertex 6.62036 -9.06689 6.0001
    vertex 7.05579 -8.73278 6.0001
  endloop
 endfacet
 facet normal -0.793353 0.608762 0
  outer loop
    vertex 7.3899 -8.29736 6.0001
    vertex 7.05579 -8.73278 0.0001
    vertex 7.05579 -8.73278 6.0001
  endloop
 endfacet
 facet normal -0.793353 0.608762 0
  outer loop
    vertex 7.05579 -8.73278 0.0001
    vertex 7.3899 -8.29736 6.0001
    vertex 7.3899 -8.29736 0.0001
  endloop
 endfacet
 facet normal -0.923882 0.382678 0
  outer loop
    vertex 7.59993 -7.79029 6.0001
    vertex 7.3899 -8.29736 0.0001
    vertex 7.3899 -8.29736 6.0001
  endloop
 endfacet
 facet normal -0.923882 0.382678 0
  outer loop
    vertex 7.3899 -8.29736 0.0001
    vertex 7.59993 -7.79029 6.0001
    vertex 7.59993 -7.79029 0.0001
  endloop
 endfacet
 facet normal -0.991444 0.13053 0
  outer loop
    vertex 7.67157 -7.24615 6.0001
    vertex 7.59993 -7.79029 0.0001
    vertex 7.59993 -7.79029 6.0001
  endloop
 endfacet
 facet normal -0.991444 0.13053 0
  outer loop
    vertex 7.59993 -7.79029 0.0001
    vertex 7.67157 -7.24615 6.0001
    vertex 7.67157 -7.24615 0.0001
  endloop
 endfacet
 facet normal 0.997902 0.064749 0
  outer loop
    vertex 23.9606 -44.8388 0.0001
    vertex 23.991 -45.3071 6.0001
    vertex 23.991 -45.3071 0.0001
  endloop
 endfacet
 facet normal 0.997902 0.064749 -0
  outer loop
    vertex 23.991 -45.3071 6.0001
    vertex 23.9606 -44.8388 0.0001
    vertex 23.9606 -44.8388 6.0001
  endloop
 endfacet
 facet normal 0.808636 -0.588309 0
  outer loop
    vertex 23.4484 -47.4199 0.0001
    vertex 22.5749 -48.6206 6.0001
    vertex 22.5749 -48.6206 0.0001
  endloop
 endfacet
 facet normal 0.808636 -0.588309 0
  outer loop
    vertex 22.5749 -48.6206 6.0001
    vertex 23.4484 -47.4199 0.0001
    vertex 23.4484 -47.4199 6.0001
  endloop
 endfacet
 facet normal 0.998928 -0.0462971 0
  outer loop
    vertex 23.9948 -45.7456 0.0001
    vertex 23.9815 -46.034 6.0001
    vertex 23.9815 -46.034 0.0001
  endloop
 endfacet
 facet normal 0.998928 -0.0462971 0
  outer loop
    vertex 23.9815 -46.034 6.0001
    vertex 23.9948 -45.7456 0.0001
    vertex 23.9948 -45.7456 6.0001
  endloop
 endfacet
 facet normal 0.999962 0.00876778 0
  outer loop
    vertex 23.991 -45.3071 0.0001
    vertex 23.9948 -45.7456 6.0001
    vertex 23.9948 -45.7456 0.0001
  endloop
 endfacet
 facet normal 0.999962 0.00876778 -0
  outer loop
    vertex 23.9948 -45.7456 6.0001
    vertex 23.991 -45.3071 0.0001
    vertex 23.991 -45.3071 6.0001
  endloop
 endfacet
 facet normal 0.927158 -0.374672 0
  outer loop
    vertex 23.9719 -46.1246 0.0001
    vertex 23.4484 -47.4199 6.0001
    vertex 23.4484 -47.4199 0.0001
  endloop
 endfacet
 facet normal 0.927158 -0.374672 0
  outer loop
    vertex 23.4484 -47.4199 6.0001
    vertex 23.9719 -46.1246 0.0001
    vertex 23.9719 -46.1246 6.0001
  endloop
 endfacet
 facet normal 0.99445 -0.105208 0
  outer loop
    vertex 23.9815 -46.034 0.0001
    vertex 23.9719 -46.1246 6.0001
    vertex 23.9719 -46.1246 0.0001
  endloop
 endfacet
 facet normal 0.99445 -0.105208 0
  outer loop
    vertex 23.9719 -46.1246 6.0001
    vertex 23.9815 -46.034 0.0001
    vertex 23.9815 -46.034 6.0001
  endloop
 endfacet
 facet normal 0.628817 -0.777553 0
  outer loop
    vertex 22.5749 -48.6206 6.0001
    vertex 21.8316 -49.2217 0.0001
    vertex 22.5749 -48.6206 0.0001
  endloop
 endfacet
 facet normal 0.628817 -0.777553 0
  outer loop
    vertex 21.8316 -49.2217 0.0001
    vertex 22.5749 -48.6206 6.0001
    vertex 21.8316 -49.2217 6.0001
  endloop
 endfacet
 facet normal 0.628815 -0.777555 0
  outer loop
    vertex 21.8316 -49.2217 6.0001
    vertex 21.4203 -49.5543 0.0001
    vertex 21.8316 -49.2217 0.0001
  endloop
 endfacet
 facet normal 0.628815 -0.777555 0
  outer loop
    vertex 21.4203 -49.5543 0.0001
    vertex 21.8316 -49.2217 6.0001
    vertex 21.4203 -49.5543 6.0001
  endloop
 endfacet
 facet normal 0.406141 -0.91381 0
  outer loop
    vertex 21.4203 -49.5543 6.0001
    vertex 20.2646 -50.068 0.0001
    vertex 21.4203 -49.5543 0.0001
  endloop
 endfacet
 facet normal 0.406141 -0.91381 0
  outer loop
    vertex 20.2646 -50.068 0.0001
    vertex 21.4203 -49.5543 6.0001
    vertex 20.2646 -50.068 6.0001
  endloop
 endfacet
 facet normal 0.914266 0.405113 0
  outer loop
    vertex -3.16009 9.26487 0.0001
    vertex -2.94349 8.77604 6.0001
    vertex -2.94349 8.77604 0.0001
  endloop
 endfacet
 facet normal 0.914266 0.405113 -0
  outer loop
    vertex -2.94349 8.77604 6.0001
    vertex -3.16009 9.26487 0.0001
    vertex -3.16009 9.26487 6.0001
  endloop
 endfacet
 facet normal 0.999927 0.0120909 0
  outer loop
    vertex -7.60661 22.3472 0.0001
    vertex -7.59932 21.744 6.0001
    vertex -7.59932 21.744 0.0001
  endloop
 endfacet
 facet normal 0.999927 0.0120909 -0
  outer loop
    vertex -7.59932 21.744 6.0001
    vertex -7.60661 22.3472 0.0001
    vertex -7.60661 22.3472 6.0001
  endloop
 endfacet
 facet normal -0.945629 -0.325247 0
  outer loop
    vertex 11.3093 -17.8225 6.0001
    vertex 18.4443 -38.5669 0.0001
    vertex 18.4443 -38.5669 6.0001
  endloop
 endfacet
 facet normal -0.945629 -0.325247 -0
  outer loop
    vertex 18.4443 -38.5669 0.0001
    vertex 11.3093 -17.8225 6.0001
    vertex 11.3093 -17.8225 0.0001
  endloop
 endfacet
 facet normal 0.942162 0.335157 0
  outer loop
    vertex -7.59932 21.744 0.0001
    vertex -3.16009 9.26487 6.0001
    vertex -3.16009 9.26487 0.0001
  endloop
 endfacet
 facet normal 0.942162 0.335157 -0
  outer loop
    vertex -3.16009 9.26487 6.0001
    vertex -7.59932 21.744 0.0001
    vertex -7.59932 21.744 6.0001
  endloop
 endfacet
 facet normal 0.344309 0.938856 0
  outer loop
    vertex -1.88779 7.7873 6.0001
    vertex -1.3858 7.6032 0.0001
    vertex -1.88779 7.7873 0.0001
  endloop
 endfacet
 facet normal 0.344309 0.938856 0
  outer loop
    vertex -1.3858 7.6032 0.0001
    vertex -1.88779 7.7873 6.0001
    vertex -1.3858 7.6032 6.0001
  endloop
 endfacet
 facet normal 0.985039 0.172329 0
  outer loop
    vertex 23.8302 -43.9408 0.0001
    vertex 23.9058 -44.3728 6.0001
    vertex 23.9058 -44.3728 0.0001
  endloop
 endfacet
 facet normal 0.985039 0.172329 -0
  outer loop
    vertex 23.9058 -44.3728 6.0001
    vertex 23.8302 -43.9408 0.0001
    vertex 23.8302 -43.9408 6.0001
  endloop
 endfacet
 facet normal 0.970756 0.240067 0
  outer loop
    vertex 23.739 -43.5723 0.0001
    vertex 23.8302 -43.9408 6.0001
    vertex 23.8302 -43.9408 0.0001
  endloop
 endfacet
 facet normal 0.970756 0.240067 -0
  outer loop
    vertex 23.8302 -43.9408 6.0001
    vertex 23.739 -43.5723 0.0001
    vertex 23.739 -43.5723 6.0001
  endloop
 endfacet
 facet normal 0.993145 0.116893 0
  outer loop
    vertex 23.9058 -44.3728 0.0001
    vertex 23.9606 -44.8388 6.0001
    vertex 23.9606 -44.8388 0.0001
  endloop
 endfacet
 facet normal 0.993145 0.116893 -0
  outer loop
    vertex 23.9606 -44.8388 6.0001
    vertex 23.9058 -44.3728 0.0001
    vertex 23.9058 -44.3728 6.0001
  endloop
 endfacet
 facet normal 0.601547 0.798837 0
  outer loop
    vertex -2.62782 8.34456 6.0001
    vertex -1.88779 7.7873 0.0001
    vertex -2.62782 8.34456 0.0001
  endloop
 endfacet
 facet normal 0.601547 0.798837 0
  outer loop
    vertex -1.88779 7.7873 0.0001
    vertex -2.62782 8.34456 6.0001
    vertex -1.88779 7.7873 6.0001
  endloop
 endfacet
 facet normal 0.807072 0.590454 0
  outer loop
    vertex -2.94349 8.77604 0.0001
    vertex -2.62782 8.34456 6.0001
    vertex -2.62782 8.34456 0.0001
  endloop
 endfacet
 facet normal 0.807072 0.590454 -0
  outer loop
    vertex -2.62782 8.34456 6.0001
    vertex -2.94349 8.77604 0.0001
    vertex -2.94349 8.77604 6.0001
  endloop
 endfacet
 facet normal -0.999999 0.00108553 0
  outer loop
    vertex 18.5857 -39.0966 6.0001
    vertex 18.5851 -39.6448 0.0001
    vertex 18.5851 -39.6448 6.0001
  endloop
 endfacet
 facet normal -0.999999 0.00108553 0
  outer loop
    vertex 18.5851 -39.6448 0.0001
    vertex 18.5857 -39.0966 6.0001
    vertex 18.5857 -39.0966 0.0001
  endloop
 endfacet
 facet normal -0.96617 -0.257904 0
  outer loop
    vertex 18.4443 -38.5669 6.0001
    vertex 18.5857 -39.0966 0.0001
    vertex 18.5857 -39.0966 6.0001
  endloop
 endfacet
 facet normal -0.96617 -0.257904 -0
  outer loop
    vertex 18.5857 -39.0966 0.0001
    vertex 18.4443 -38.5669 6.0001
    vertex 18.4443 -38.5669 0.0001
  endloop
 endfacet
 facet normal 0.406151 -0.913806 0
  outer loop
    vertex 20.2646 -50.068 6.0001
    vertex 20.0634 -50.1574 0.0001
    vertex 20.2646 -50.068 0.0001
  endloop
 endfacet
 facet normal 0.406151 -0.913806 0
  outer loop
    vertex 20.0634 -50.1574 0.0001
    vertex 20.2646 -50.068 6.0001
    vertex 20.0634 -50.1574 6.0001
  endloop
 endfacet
 facet normal 0.155793 -0.98779 0
  outer loop
    vertex 20.0634 -50.1574 6.0001
    vertex 18.5967 -50.3887 0.0001
    vertex 20.0634 -50.1574 0.0001
  endloop
 endfacet
 facet normal 0.155793 -0.98779 0
  outer loop
    vertex 18.5967 -50.3887 0.0001
    vertex 20.0634 -50.1574 6.0001
    vertex 18.5967 -50.3887 6.0001
  endloop
 endfacet
 facet normal -0.155388 -0.987853 0
  outer loop
    vertex 18.5967 -50.3887 6.0001
    vertex 18.4424 -50.3644 0.0001
    vertex 18.5967 -50.3887 0.0001
  endloop
 endfacet
 facet normal -0.155388 -0.987853 0
  outer loop
    vertex 18.4424 -50.3644 0.0001
    vertex 18.5967 -50.3887 6.0001
    vertex 18.4424 -50.3644 6.0001
  endloop
 endfacet
 facet normal -0.0992502 -0.995063 0
  outer loop
    vertex 18.4424 -50.3644 6.0001
    vertex 17.1201 -50.2325 0.0001
    vertex 18.4424 -50.3644 0.0001
  endloop
 endfacet
 facet normal -0.0992502 -0.995063 0
  outer loop
    vertex 17.1201 -50.2325 0.0001
    vertex 18.4424 -50.3644 6.0001
    vertex 17.1201 -50.2325 6.0001
  endloop
 endfacet
 facet normal -0.358974 -0.933348 0
  outer loop
    vertex 17.1201 -50.2325 6.0001
    vertex 15.7342 -49.6995 0.0001
    vertex 17.1201 -50.2325 0.0001
  endloop
 endfacet
 facet normal -0.358974 -0.933348 0
  outer loop
    vertex 15.7342 -49.6995 0.0001
    vertex 17.1201 -50.2325 6.0001
    vertex 15.7342 -49.6995 6.0001
  endloop
 endfacet
 facet normal -0.588311 -0.808635 0
  outer loop
    vertex 15.7342 -49.6995 6.0001
    vertex 14.5335 -48.826 0.0001
    vertex 15.7342 -49.6995 0.0001
  endloop
 endfacet
 facet normal -0.588311 -0.808635 0
  outer loop
    vertex 14.5335 -48.826 0.0001
    vertex 15.7342 -49.6995 6.0001
    vertex 14.5335 -48.826 6.0001
  endloop
 endfacet
 facet normal -0.777554 -0.628816 0
  outer loop
    vertex 13.5998 -47.6714 6.0001
    vertex 14.5335 -48.826 0.0001
    vertex 14.5335 -48.826 6.0001
  endloop
 endfacet
 facet normal -0.777554 -0.628816 -0
  outer loop
    vertex 14.5335 -48.826 0.0001
    vertex 13.5998 -47.6714 6.0001
    vertex 13.5998 -47.6714 0.0001
  endloop
 endfacet
 facet normal -0.91381 -0.406143 0
  outer loop
    vertex 12.9967 -46.3145 6.0001
    vertex 13.5998 -47.6714 0.0001
    vertex 13.5998 -47.6714 6.0001
  endloop
 endfacet
 facet normal -0.91381 -0.406143 -0
  outer loop
    vertex 13.5998 -47.6714 0.0001
    vertex 12.9967 -46.3145 6.0001
    vertex 12.9967 -46.3145 0.0001
  endloop
 endfacet
 facet normal -0.933998 -0.357279 0
  outer loop
    vertex -23.9948 50.3887 6.0001
    vertex 12.9967 -46.3145 0.0001
    vertex 12.9967 -46.3145 6.0001
  endloop
 endfacet
 facet normal -0.933998 -0.357279 -0
  outer loop
    vertex 12.9967 -46.3145 0.0001
    vertex -23.9948 50.3887 6.0001
    vertex -23.9948 50.3887 0.0001
  endloop
 endfacet
 facet normal 0 1 0
  outer loop
    vertex -23.9948 50.3887 6.0001
    vertex -17.1948 50.3887 0.0001
    vertex -23.9948 50.3887 0.0001
  endloop
 endfacet
 facet normal -0 1 0
  outer loop
    vertex -17.1948 50.3887 0.0001
    vertex -23.9948 50.3887 6.0001
    vertex -17.1948 50.3887 6.0001
  endloop
 endfacet
 facet normal 1 0 0
  outer loop
    vertex -17.1948 50.3887 0.0001
    vertex -17.1948 47.2887 6.0001
    vertex -17.1948 47.2887 0.0001
  endloop
 endfacet
 facet normal 1 0 -0
  outer loop
    vertex -17.1948 47.2887 6.0001
    vertex -17.1948 50.3887 0.0001
    vertex -17.1948 50.3887 6.0001
  endloop
 endfacet
 facet normal 0 1 0
  outer loop
    vertex -17.1948 47.2887 6.0001
    vertex -10.1948 47.2887 0.0001
    vertex -17.1948 47.2887 0.0001
  endloop
 endfacet
 facet normal -0 1 0
  outer loop
    vertex -10.1948 47.2887 0.0001
    vertex -17.1948 47.2887 6.0001
    vertex -10.1948 47.2887 6.0001
  endloop
 endfacet
 facet normal -1 0 0
  outer loop
    vertex -10.1948 50.3887 6.0001
    vertex -10.1948 47.2887 0.0001
    vertex -10.1948 47.2887 6.0001
  endloop
 endfacet
 facet normal -1 0 -0
  outer loop
    vertex -10.1948 47.2887 0.0001
    vertex -10.1948 50.3887 6.0001
    vertex -10.1948 50.3887 0.0001
  endloop
 endfacet
 facet normal 0 1 0
  outer loop
    vertex -10.1948 50.3887 6.0001
    vertex -4.79052 50.3887 0.0001
    vertex -10.1948 50.3887 0.0001
  endloop
 endfacet
 facet normal -0 1 0
  outer loop
    vertex -4.79052 50.3887 0.0001
    vertex -10.1948 50.3887 6.0001
    vertex -4.79052 50.3887 6.0001
  endloop
 endfacet
 facet normal 1 0 0
  outer loop
    vertex -4.79052 50.3887 0.0001
    vertex -4.79052 47.2887 6.0001
    vertex -4.79052 47.2887 0.0001
  endloop
 endfacet
 facet normal 1 0 -0
  outer loop
    vertex -4.79052 47.2887 6.0001
    vertex -4.79052 50.3887 0.0001
    vertex -4.79052 50.3887 6.0001
  endloop
 endfacet
 facet normal 0 1 0
  outer loop
    vertex -4.79052 47.2887 6.0001
    vertex 2.10948 47.2887 0.0001
    vertex -4.79052 47.2887 0.0001
  endloop
 endfacet
 facet normal -0 1 0
  outer loop
    vertex 2.10948 47.2887 0.0001
    vertex -4.79052 47.2887 6.0001
    vertex 2.10948 47.2887 6.0001
  endloop
 endfacet
 facet normal -1 0 0
  outer loop
    vertex 2.10948 49.5647 6.0001
    vertex 2.10948 47.2887 0.0001
    vertex 2.10948 47.2887 6.0001
  endloop
 endfacet
 facet normal -1 0 -0
  outer loop
    vertex 2.10948 47.2887 0.0001
    vertex 2.10948 49.5647 6.0001
    vertex 2.10948 49.5647 0.0001
  endloop
 endfacet
 facet normal 0.792067 0.610434 0
  outer loop
    vertex 2.10948 49.5647 0.0001
    vertex 2.90987 48.5262 6.0001
    vertex 2.90987 48.5262 0.0001
  endloop
 endfacet
 facet normal 0.792067 0.610434 -0
  outer loop
    vertex 2.90987 48.5262 6.0001
    vertex 2.10948 49.5647 0.0001
    vertex 2.10948 49.5647 6.0001
  endloop
 endfacet
 facet normal 0.73803 0.674767 0
  outer loop
    vertex 2.90987 48.5262 0.0001
    vertex 3.58464 47.7882 6.0001
    vertex 3.58464 47.7882 0.0001
  endloop
 endfacet
 facet normal 0.73803 0.674767 -0
  outer loop
    vertex 3.58464 47.7882 6.0001
    vertex 2.90987 48.5262 0.0001
    vertex 2.90987 48.5262 6.0001
  endloop
 endfacet
 facet normal 0.535426 0.844582 0
  outer loop
    vertex 3.58464 47.7882 6.0001
    vertex 5.03438 46.8691 0.0001
    vertex 3.58464 47.7882 0.0001
  endloop
 endfacet
 facet normal 0.535426 0.844582 0
  outer loop
    vertex 5.03438 46.8691 0.0001
    vertex 3.58464 47.7882 6.0001
    vertex 5.03438 46.8691 6.0001
  endloop
 endfacet
 facet normal 0.463678 0.886004 0
  outer loop
    vertex 5.03438 46.8691 6.0001
    vertex 5.58068 46.5832 0.0001
    vertex 5.03438 46.8691 0.0001
  endloop
 endfacet
 facet normal 0.463678 0.886004 0
  outer loop
    vertex 5.58068 46.5832 0.0001
    vertex 5.03438 46.8691 6.0001
    vertex 5.58068 46.5832 6.0001
  endloop
 endfacet
 facet normal 0.38894 0.921263 0
  outer loop
    vertex 5.58068 46.5832 6.0001
    vertex 6.14868 46.3434 0.0001
    vertex 5.58068 46.5832 0.0001
  endloop
 endfacet
 facet normal 0.38894 0.921263 0
  outer loop
    vertex 6.14868 46.3434 0.0001
    vertex 5.58068 46.5832 6.0001
    vertex 6.14868 46.3434 6.0001
  endloop
 endfacet
 facet normal 0.311451 0.950262 0
  outer loop
    vertex 6.14868 46.3434 6.0001
    vertex 6.73448 46.1514 0.0001
    vertex 6.14868 46.3434 0.0001
  endloop
 endfacet
 facet normal 0.311451 0.950262 0
  outer loop
    vertex 6.73448 46.1514 0.0001
    vertex 6.14868 46.3434 6.0001
    vertex 6.73448 46.1514 6.0001
  endloop
 endfacet
 facet normal 0.176389 0.984321 0
  outer loop
    vertex 6.73448 46.1514 6.0001
    vertex 10.2217 45.5265 0.0001
    vertex 6.73448 46.1514 0.0001
  endloop
 endfacet
 facet normal 0.176389 0.984321 0
  outer loop
    vertex 10.2217 45.5265 0.0001
    vertex 6.73448 46.1514 6.0001
    vertex 10.2217 45.5265 6.0001
  endloop
 endfacet
 facet normal 0.999465 -0.0327112 0
  outer loop
    vertex 10.2217 45.5265 0.0001
    vertex 8.94418 6.49361 6.0001
    vertex 8.94418 6.49361 0.0001
  endloop
 endfacet
 facet normal 0.999465 -0.0327112 0
  outer loop
    vertex 8.94418 6.49361 6.0001
    vertex 10.2217 45.5265 0.0001
    vertex 10.2217 45.5265 6.0001
  endloop
 endfacet
 facet normal 0.959004 0.283393 0
  outer loop
    vertex 8.94418 6.49361 0.0001
    vertex 23.739 -43.5723 6.0001
    vertex 23.739 -43.5723 0.0001
  endloop
 endfacet
 facet normal 0.959004 0.283393 -0
  outer loop
    vertex 23.739 -43.5723 6.0001
    vertex 8.94418 6.49361 0.0001
    vertex 8.94418 6.49361 6.0001
  endloop
 endfacet
 facet normal 0 -0 1
  outer loop
    vertex -0.920319 7.5303 6.0001
    vertex 1.14508 0.359795 6.0001
    vertex 2.73208 7.7193 6.0001
  endloop
 endfacet
 facet normal 0 0 1
  outer loop
    vertex 1.14508 0.359795 6.0001
    vertex -0.920319 7.5303 6.0001
    vertex 1.11051 -0.15712 6.0001
  endloop
 endfacet
 facet normal 0 0 1
  outer loop
    vertex 2.73208 7.7193 6.0001
    vertex 1.14508 0.359795 6.0001
    vertex 1.31226 0.850143 6.0001
  endloop
 endfacet
 facet normal 0 0 1
  outer loop
    vertex 2.73208 7.7193 6.0001
    vertex 1.31226 0.850143 6.0001
    vertex 1.60065 1.28052 6.0001
  endloop
 endfacet
 facet normal 0 0 1
  outer loop
    vertex 2.73208 7.7193 6.0001
    vertex 1.60065 1.28052 6.0001
    vertex 1.99062 1.62158 6.0001
  endloop
 endfacet
 facet normal 0 0 1
  outer loop
    vertex 2.73208 7.7193 6.0001
    vertex 1.99062 1.62158 6.0001
    vertex 2.45556 1.8501 6.0001
  endloop
 endfacet
 facet normal 0 0 1
  outer loop
    vertex 2.73208 7.7193 6.0001
    vertex 2.45556 1.8501 6.0001
    vertex 2.96381 1.95049 6.0001
  endloop
 endfacet
 facet normal 0 -0 1
  outer loop
    vertex 2.73208 7.7193 6.0001
    vertex 2.96381 1.95049 6.0001
    vertex 3.44748 8.2169 6.0001
  endloop
 endfacet
 facet normal -0 0 1
  outer loop
    vertex 3.44748 8.2169 6.0001
    vertex 2.96381 1.95049 6.0001
    vertex 3.48072 1.91592 6.0001
  endloop
 endfacet
 facet normal 0 -0 1
  outer loop
    vertex 3.44748 8.2169 6.0001
    vertex 3.48072 1.91592 6.0001
    vertex 3.64968 8.4268 6.0001
  endloop
 endfacet
 facet normal -0 0 1
  outer loop
    vertex 3.64968 8.4268 6.0001
    vertex 3.48072 1.91592 6.0001
    vertex 3.97107 1.74874 6.0001
  endloop
 endfacet
 facet normal 0 -0 1
  outer loop
    vertex 3.64968 8.4268 6.0001
    vertex 3.97107 1.74874 6.0001
    vertex 3.98778 8.9007 6.0001
  endloop
 endfacet
 facet normal -0 0 1
  outer loop
    vertex 3.98778 8.9007 6.0001
    vertex 3.97107 1.74874 6.0001
    vertex 4.40144 1.46035 6.0001
  endloop
 endfacet
 facet normal 0 0 1
  outer loop
    vertex 3.98778 8.9007 6.0001
    vertex 4.40144 1.46035 6.0001
    vertex 4.30658 9.7117 6.0001
  endloop
 endfacet
 facet normal 0 0 1
  outer loop
    vertex 4.30658 9.7117 6.0001
    vertex 4.40144 1.46035 6.0001
    vertex 4.38158 10.289 6.0001
  endloop
 endfacet
 facet normal 0 -0 1
  outer loop
    vertex 4.38158 10.289 6.0001
    vertex 4.40144 1.46035 6.0001
    vertex 4.69138 20.4146 6.0001
  endloop
 endfacet
 facet normal -0 0 1
  outer loop
    vertex 4.69138 20.4146 6.0001
    vertex 4.40144 1.46035 6.0001
    vertex 4.74251 1.07039 6.0001
  endloop
 endfacet
 facet normal 0 0 1
  outer loop
    vertex -15.2255 41.4693 6.0001
    vertex -10.1948 47.2887 6.0001
    vertex -17.1948 47.2887 6.0001
  endloop
 endfacet
 facet normal 0 0 1
  outer loop
    vertex -10.1948 47.2887 6.0001
    vertex -15.2255 41.4693 6.0001
    vertex 4.90198 41.4693 6.0001
  endloop
 endfacet
 facet normal 0 0 1
  outer loop
    vertex -10.1948 47.2887 6.0001
    vertex 4.90198 41.4693 6.0001
    vertex -10.1948 50.3887 6.0001
  endloop
 endfacet
 facet normal 0 0 1
  outer loop
    vertex -10.1948 50.3887 6.0001
    vertex 4.90198 41.4693 6.0001
    vertex -4.79052 47.2887 6.0001
  endloop
 endfacet
 facet normal 0 0 1
  outer loop
    vertex -4.79052 47.2887 6.0001
    vertex 4.90198 41.4693 6.0001
    vertex 2.10948 47.2887 6.0001
  endloop
 endfacet
 facet normal 0 0 1
  outer loop
    vertex 2.10948 47.2887 6.0001
    vertex 4.90198 41.4693 6.0001
    vertex 2.10948 49.5647 6.0001
  endloop
 endfacet
 facet normal 0 0 1
  outer loop
    vertex 2.10948 49.5647 6.0001
    vertex 4.90198 41.4693 6.0001
    vertex 2.90987 48.5262 6.0001
  endloop
 endfacet
 facet normal 0 0 1
  outer loop
    vertex 2.90987 48.5262 6.0001
    vertex 4.90198 41.4693 6.0001
    vertex 3.58464 47.7882 6.0001
  endloop
 endfacet
 facet normal 0 -0 1
  outer loop
    vertex 3.58464 47.7882 6.0001
    vertex 4.90198 41.4693 6.0001
    vertex 5.03438 46.8691 6.0001
  endloop
 endfacet
 facet normal -0 0 1
  outer loop
    vertex 5.03438 46.8691 6.0001
    vertex 4.90198 41.4693 6.0001
    vertex 5.19968 39.9828 6.0001
  endloop
 endfacet
 facet normal 0 -0 1
  outer loop
    vertex 5.03438 46.8691 6.0001
    vertex 5.19968 39.9828 6.0001
    vertex 5.58068 46.5832 6.0001
  endloop
 endfacet
 facet normal 0 0 1
  outer loop
    vertex 7.40141 -18.5934 6.0001
    vertex 7.59993 -7.79029 6.0001
    vertex 7.3899 -8.29736 6.0001
  endloop
 endfacet
 facet normal 0 0 1
  outer loop
    vertex 7.59993 -7.79029 6.0001
    vertex 7.40141 -18.5934 6.0001
    vertex 7.46956 -18.0757 6.0001
  endloop
 endfacet
 facet normal 0 0 1
  outer loop
    vertex 7.59993 -7.79029 6.0001
    vertex 7.46956 -18.0757 6.0001
    vertex 7.66936 -17.5934 6.0001
  endloop
 endfacet
 facet normal 0 -0 1
  outer loop
    vertex 7.59993 -7.79029 6.0001
    vertex 7.66936 -17.5934 6.0001
    vertex 7.67157 -7.24615 6.0001
  endloop
 endfacet
 facet normal 0 0 1
  outer loop
    vertex 7.67157 -7.24615 6.0001
    vertex 7.66936 -17.5934 6.0001
    vertex 7.9872 -17.1792 6.0001
  endloop
 endfacet
 facet normal 0 0 1
  outer loop
    vertex 12.9967 -46.3145 6.0001
    vertex -17.1948 47.2887 6.0001
    vertex -23.9948 50.3887 6.0001
  endloop
 endfacet
 facet normal 0 0 1
  outer loop
    vertex -17.1948 47.2887 6.0001
    vertex 12.9967 -46.3145 6.0001
    vertex -15.2255 41.4693 6.0001
  endloop
 endfacet
 facet normal 0 0 1
  outer loop
    vertex -15.2255 41.4693 6.0001
    vertex 12.9967 -46.3145 6.0001
    vertex -12.4318 34.2831 6.0001
  endloop
 endfacet
 facet normal 0 0 1
  outer loop
    vertex -12.4318 34.2831 6.0001
    vertex 12.9967 -46.3145 6.0001
    vertex -12.1198 33.597 6.0001
  endloop
 endfacet
 facet normal 0 0 1
  outer loop
    vertex -12.1198 33.597 6.0001
    vertex 12.9967 -46.3145 6.0001
    vertex -11.6479 33.0094 6.0001
  endloop
 endfacet
 facet normal 0 0 1
  outer loop
    vertex -11.6479 33.0094 6.0001
    vertex 12.9967 -46.3145 6.0001
    vertex -10.9394 32.4991 6.0001
  endloop
 endfacet
 facet normal 0 0 1
  outer loop
    vertex -10.9394 32.4991 6.0001
    vertex 12.9967 -46.3145 6.0001
    vertex -7.59932 21.744 6.0001
  endloop
 endfacet
 facet normal 0 0 1
  outer loop
    vertex -10.9394 32.4991 6.0001
    vertex -7.59932 21.744 6.0001
    vertex -10.7112 32.3924 6.0001
  endloop
 endfacet
 facet normal 0 0 1
  outer loop
    vertex -10.7112 32.3924 6.0001
    vertex -7.59932 21.744 6.0001
    vertex -7.60661 22.3472 6.0001
  endloop
 endfacet
 facet normal 0 0 1
  outer loop
    vertex -7.59932 21.744 6.0001
    vertex 12.9967 -46.3145 6.0001
    vertex -3.16009 9.26487 6.0001
  endloop
 endfacet
 facet normal 0 0 1
  outer loop
    vertex -3.16009 9.26487 6.0001
    vertex 12.9967 -46.3145 6.0001
    vertex -2.94349 8.77604 6.0001
  endloop
 endfacet
 facet normal 0 0 1
  outer loop
    vertex -2.94349 8.77604 6.0001
    vertex 12.9967 -46.3145 6.0001
    vertex -2.62782 8.34456 6.0001
  endloop
 endfacet
 facet normal 0 0 1
  outer loop
    vertex -2.62782 8.34456 6.0001
    vertex 12.9967 -46.3145 6.0001
    vertex -1.88779 7.7873 6.0001
  endloop
 endfacet
 facet normal 0 0 1
  outer loop
    vertex -1.88779 7.7873 6.0001
    vertex 12.9967 -46.3145 6.0001
    vertex -1.3858 7.6032 6.0001
  endloop
 endfacet
 facet normal 0 0 1
  outer loop
    vertex -1.3858 7.6032 6.0001
    vertex 12.9967 -46.3145 6.0001
    vertex -0.920319 7.5303 6.0001
  endloop
 endfacet
 facet normal 0 0 1
  outer loop
    vertex -0.920319 7.5303 6.0001
    vertex 12.9967 -46.3145 6.0001
    vertex 1.21091 -0.665367 6.0001
  endloop
 endfacet
 facet normal 0 0 1
  outer loop
    vertex -0.920319 7.5303 6.0001
    vertex 1.21091 -0.665367 6.0001
    vertex 1.11051 -0.15712 6.0001
  endloop
 endfacet
 facet normal 0 0 1
  outer loop
    vertex 1.21091 -0.665367 6.0001
    vertex 12.9967 -46.3145 6.0001
    vertex 3.82327 -8.3949 6.0001
  endloop
 endfacet
 facet normal 0 0 1
  outer loop
    vertex 3.82327 -8.3949 6.0001
    vertex 12.9967 -46.3145 6.0001
    vertex 4.08253 -8.73278 6.0001
  endloop
 endfacet
 facet normal 0 0 1
  outer loop
    vertex 4.08253 -8.73278 6.0001
    vertex 12.9967 -46.3145 6.0001
    vertex 4.51795 -9.06689 6.0001
  endloop
 endfacet
 facet normal 0 0 1
  outer loop
    vertex 4.51795 -9.06689 6.0001
    vertex 12.9967 -46.3145 6.0001
    vertex 5.02502 -9.27692 6.0001
  endloop
 endfacet
 facet normal 0 0 1
  outer loop
    vertex 5.02502 -9.27692 6.0001
    vertex 12.9967 -46.3145 6.0001
    vertex 7.46956 -19.111 6.0001
  endloop
 endfacet
 facet normal 0 0 1
  outer loop
    vertex 5.02502 -9.27692 6.0001
    vertex 7.46956 -19.111 6.0001
    vertex 5.56916 -9.34856 6.0001
  endloop
 endfacet
 facet normal 0 0 1
  outer loop
    vertex 5.56916 -9.34856 6.0001
    vertex 7.46956 -19.111 6.0001
    vertex 6.1133 -9.27692 6.0001
  endloop
 endfacet
 facet normal 0 0 1
  outer loop
    vertex 6.1133 -9.27692 6.0001
    vertex 7.46956 -19.111 6.0001
    vertex 7.40141 -18.5934 6.0001
  endloop
 endfacet
 facet normal 0 0 1
  outer loop
    vertex 6.1133 -9.27692 6.0001
    vertex 7.40141 -18.5934 6.0001
    vertex 6.24939 -9.22055 6.0001
  endloop
 endfacet
 facet normal 0 0 1
  outer loop
    vertex 6.24939 -9.22055 6.0001
    vertex 7.40141 -18.5934 6.0001
    vertex 6.62036 -9.06689 6.0001
  endloop
 endfacet
 facet normal 0 0 1
  outer loop
    vertex 6.62036 -9.06689 6.0001
    vertex 7.40141 -18.5934 6.0001
    vertex 7.05579 -8.73278 6.0001
  endloop
 endfacet
 facet normal 0 0 1
  outer loop
    vertex 7.05579 -8.73278 6.0001
    vertex 7.40141 -18.5934 6.0001
    vertex 7.3899 -8.29736 6.0001
  endloop
 endfacet
 facet normal 0 -0 1
  outer loop
    vertex 7.46956 -19.111 6.0001
    vertex 12.9967 -46.3145 6.0001
    vertex 14.5624 -40.1701 6.0001
  endloop
 endfacet
 facet normal -0 0 1
  outer loop
    vertex 14.5624 -40.1701 6.0001
    vertex 12.9967 -46.3145 6.0001
    vertex 13.5998 -47.6714 6.0001
  endloop
 endfacet
 facet normal -0 0 1
  outer loop
    vertex 14.5624 -40.1701 6.0001
    vertex 13.5998 -47.6714 6.0001
    vertex 14.5335 -48.826 6.0001
  endloop
 endfacet
 facet normal -0 0 1
  outer loop
    vertex 14.5624 -40.1701 6.0001
    vertex 14.5335 -48.826 6.0001
    vertex 15.7342 -49.6995 6.0001
  endloop
 endfacet
 facet normal 0 0 1
  outer loop
    vertex 14.5624 -40.1701 6.0001
    vertex 15.7342 -49.6995 6.0001
    vertex 14.836 -40.6451 6.0001
  endloop
 endfacet
 facet normal 0 0 1
  outer loop
    vertex 14.836 -40.6451 6.0001
    vertex 15.7342 -49.6995 6.0001
    vertex 15.1304 -40.9402 6.0001
  endloop
 endfacet
 facet normal 0 0 1
  outer loop
    vertex 15.1304 -40.9402 6.0001
    vertex 15.7342 -49.6995 6.0001
    vertex 15.6977 -41.3078 6.0001
  endloop
 endfacet
 facet normal 0 -0 1
  outer loop
    vertex 15.6977 -41.3078 6.0001
    vertex 15.7342 -49.6995 6.0001
    vertex 16.2271 -41.4502 6.0001
  endloop
 endfacet
 facet normal -0 0 1
  outer loop
    vertex 16.2271 -41.4502 6.0001
    vertex 15.7342 -49.6995 6.0001
    vertex 17.1201 -50.2325 6.0001
  endloop
 endfacet
 facet normal 0 0 1
  outer loop
    vertex 16.2271 -41.4502 6.0001
    vertex 17.1201 -50.2325 6.0001
    vertex 16.7753 -41.4508 6.0001
  endloop
 endfacet
 facet normal 0 -0 1
  outer loop
    vertex 16.7753 -41.4508 6.0001
    vertex 17.1201 -50.2325 6.0001
    vertex 17.3049 -41.3095 6.0001
  endloop
 endfacet
 facet normal -0 0 1
  outer loop
    vertex 17.3049 -41.3095 6.0001
    vertex 17.1201 -50.2325 6.0001
    vertex 18.4424 -50.3644 6.0001
  endloop
 endfacet
 facet normal 0 0 1
  outer loop
    vertex 17.3049 -41.3095 6.0001
    vertex 18.4424 -50.3644 6.0001
    vertex 17.78 -41.0359 6.0001
  endloop
 endfacet
 facet normal 0 0 1
  outer loop
    vertex 17.78 -41.0359 6.0001
    vertex 18.4424 -50.3644 6.0001
    vertex 18.1681 -40.6486 6.0001
  endloop
 endfacet
 facet normal 0 -0 1
  outer loop
    vertex 18.1681 -40.6486 6.0001
    vertex 18.4424 -50.3644 6.0001
    vertex 18.4427 -40.1742 6.0001
  endloop
 endfacet
 facet normal -0 0 1
  outer loop
    vertex 18.4427 -40.1742 6.0001
    vertex 18.4424 -50.3644 6.0001
    vertex 18.5967 -50.3887 6.0001
  endloop
 endfacet
 facet normal 0 0 1
  outer loop
    vertex 18.4427 -40.1742 6.0001
    vertex 18.5967 -50.3887 6.0001
    vertex 18.5851 -39.6448 6.0001
  endloop
 endfacet
 facet normal 0 0 1
  outer loop
    vertex 18.5851 -39.6448 6.0001
    vertex 18.5967 -50.3887 6.0001
    vertex 18.5857 -39.0966 6.0001
  endloop
 endfacet
 facet normal 0 0 1
  outer loop
    vertex 9.40141 -16.5934 6.0001
    vertex 8.94418 6.49361 6.0001
    vertex 8.88377 -16.6615 6.0001
  endloop
 endfacet
 facet normal -0 -0 1
  outer loop
    vertex 8.94418 6.49361 6.0001
    vertex 9.40141 -16.5934 6.0001
    vertex 9.91904 -16.6615 6.0001
  endloop
 endfacet
 facet normal -0 -0 1
  outer loop
    vertex 8.94418 6.49361 6.0001
    vertex 9.91904 -16.6615 6.0001
    vertex 10.4014 -16.8613 6.0001
  endloop
 endfacet
 facet normal -0 -0 1
  outer loop
    vertex 8.94418 6.49361 6.0001
    vertex 10.4014 -16.8613 6.0001
    vertex 10.8156 -17.1792 6.0001
  endloop
 endfacet
 facet normal -0 -0 1
  outer loop
    vertex 8.94418 6.49361 6.0001
    vertex 10.8156 -17.1792 6.0001
    vertex 11.1335 -17.5934 6.0001
  endloop
 endfacet
 facet normal -0 -0 1
  outer loop
    vertex 8.94418 6.49361 6.0001
    vertex 11.1335 -17.5934 6.0001
    vertex 11.3093 -17.8225 6.0001
  endloop
 endfacet
 facet normal -0 -0 1
  outer loop
    vertex 8.94418 6.49361 6.0001
    vertex 11.3093 -17.8225 6.0001
    vertex 23.739 -43.5723 6.0001
  endloop
 endfacet
 facet normal 0 0 1
  outer loop
    vertex 23.739 -43.5723 6.0001
    vertex 11.3093 -17.8225 6.0001
    vertex 18.4443 -38.5669 6.0001
  endloop
 endfacet
 facet normal 0 0 1
  outer loop
    vertex 23.739 -43.5723 6.0001
    vertex 18.4443 -38.5669 6.0001
    vertex 18.5857 -39.0966 6.0001
  endloop
 endfacet
 facet normal 0 0 1
  outer loop
    vertex 23.739 -43.5723 6.0001
    vertex 18.5857 -39.0966 6.0001
    vertex 18.5967 -50.3887 6.0001
  endloop
 endfacet
 facet normal 0 0 1
  outer loop
    vertex 23.739 -43.5723 6.0001
    vertex 18.5967 -50.3887 6.0001
    vertex 20.0634 -50.1574 6.0001
  endloop
 endfacet
 facet normal 0 0 1
  outer loop
    vertex 23.739 -43.5723 6.0001
    vertex 20.0634 -50.1574 6.0001
    vertex 20.2646 -50.068 6.0001
  endloop
 endfacet
 facet normal 0 0 1
  outer loop
    vertex 23.739 -43.5723 6.0001
    vertex 20.2646 -50.068 6.0001
    vertex 21.4203 -49.5543 6.0001
  endloop
 endfacet
 facet normal 0 0 1
  outer loop
    vertex 23.739 -43.5723 6.0001
    vertex 21.4203 -49.5543 6.0001
    vertex 21.8316 -49.2217 6.0001
  endloop
 endfacet
 facet normal 0 0 1
  outer loop
    vertex 23.739 -43.5723 6.0001
    vertex 21.8316 -49.2217 6.0001
    vertex 22.5749 -48.6206 6.0001
  endloop
 endfacet
 facet normal 0 0 1
  outer loop
    vertex 23.739 -43.5723 6.0001
    vertex 22.5749 -48.6206 6.0001
    vertex 23.4484 -47.4199 6.0001
  endloop
 endfacet
 facet normal 0 0 1
  outer loop
    vertex 23.739 -43.5723 6.0001
    vertex 23.4484 -47.4199 6.0001
    vertex 23.9719 -46.1246 6.0001
  endloop
 endfacet
 facet normal 0 0 1
  outer loop
    vertex 23.739 -43.5723 6.0001
    vertex 23.9719 -46.1246 6.0001
    vertex 23.8302 -43.9408 6.0001
  endloop
 endfacet
 facet normal 0 0 1
  outer loop
    vertex 23.8302 -43.9408 6.0001
    vertex 23.9719 -46.1246 6.0001
    vertex 23.9058 -44.3728 6.0001
  endloop
 endfacet
 facet normal 0 0 1
  outer loop
    vertex 23.9058 -44.3728 6.0001
    vertex 23.9719 -46.1246 6.0001
    vertex 23.9606 -44.8388 6.0001
  endloop
 endfacet
 facet normal 0 -0 1
  outer loop
    vertex 23.9606 -44.8388 6.0001
    vertex 23.9719 -46.1246 6.0001
    vertex 23.991 -45.3071 6.0001
  endloop
 endfacet
 facet normal 0 0 1
  outer loop
    vertex 23.991 -45.3071 6.0001
    vertex 23.9719 -46.1246 6.0001
    vertex 23.9815 -46.034 6.0001
  endloop
 endfacet
 facet normal 0 0 1
  outer loop
    vertex 23.991 -45.3071 6.0001
    vertex 23.9815 -46.034 6.0001
    vertex 23.9948 -45.7456 6.0001
  endloop
 endfacet
 facet normal 0 -0 1
  outer loop
    vertex -10.7112 32.3924 6.0001
    vertex -5.90262 24.8576 6.0001
    vertex 1.29898 28.2372 6.0001
  endloop
 endfacet
 facet normal 0 0 1
  outer loop
    vertex -5.90262 24.8576 6.0001
    vertex -10.7112 32.3924 6.0001
    vertex -6.32158 24.6104 6.0001
  endloop
 endfacet
 facet normal 0 0 1
  outer loop
    vertex -6.32158 24.6104 6.0001
    vertex -10.7112 32.3924 6.0001
    vertex -6.61572 24.3846 6.0001
  endloop
 endfacet
 facet normal 0 0 1
  outer loop
    vertex -6.61572 24.3846 6.0001
    vertex -10.7112 32.3924 6.0001
    vertex -6.87016 24.1149 6.0001
  endloop
 endfacet
 facet normal 0 0 1
  outer loop
    vertex -6.87016 24.1149 6.0001
    vertex -10.7112 32.3924 6.0001
    vertex -7.15852 23.7231 6.0001
  endloop
 endfacet
 facet normal 0 0 1
  outer loop
    vertex -7.15852 23.7231 6.0001
    vertex -10.7112 32.3924 6.0001
    vertex -7.38084 23.2904 6.0001
  endloop
 endfacet
 facet normal 0 0 1
  outer loop
    vertex -7.38084 23.2904 6.0001
    vertex -10.7112 32.3924 6.0001
    vertex -7.53151 22.8278 6.0001
  endloop
 endfacet
 facet normal 0 0 1
  outer loop
    vertex -7.53151 22.8278 6.0001
    vertex -10.7112 32.3924 6.0001
    vertex -7.60661 22.3472 6.0001
  endloop
 endfacet
 facet normal 0 0 1
  outer loop
    vertex 1.29898 28.2372 6.0001
    vertex -5.90262 24.8576 6.0001
    vertex -5.44971 25.0351 6.0001
  endloop
 endfacet
 facet normal 0 0 1
  outer loop
    vertex 1.29898 28.2372 6.0001
    vertex -5.44971 25.0351 6.0001
    vertex -4.97426 25.1381 6.0001
  endloop
 endfacet
 facet normal 0 0 1
  outer loop
    vertex 1.29898 28.2372 6.0001
    vertex -4.97426 25.1381 6.0001
    vertex -4.37172 25.1661 6.0001
  endloop
 endfacet
 facet normal -0 0 1
  outer loop
    vertex 1.29898 28.2372 6.0001
    vertex -4.37172 25.1661 6.0001
    vertex 2.95364 22.7685 6.0001
  endloop
 endfacet
 facet normal 0 0 1
  outer loop
    vertex 1.29898 28.2372 6.0001
    vertex 2.95364 22.7685 6.0001
    vertex 2.04941 28.1308 6.0001
  endloop
 endfacet
 facet normal 0 0 1
  outer loop
    vertex 2.04941 28.1308 6.0001
    vertex 2.95364 22.7685 6.0001
    vertex 2.47944 28.1568 6.0001
  endloop
 endfacet
 facet normal 0 0 1
  outer loop
    vertex 2.47944 28.1568 6.0001
    vertex 2.95364 22.7685 6.0001
    vertex 2.90063 28.2475 6.0001
  endloop
 endfacet
 facet normal 0 -0 1
  outer loop
    vertex 2.90063 28.2475 6.0001
    vertex 2.95364 22.7685 6.0001
    vertex 3.30331 28.4007 6.0001
  endloop
 endfacet
 facet normal -0 0 1
  outer loop
    vertex 3.30331 28.4007 6.0001
    vertex 2.95364 22.7685 6.0001
    vertex 3.67352 22.3685 6.0001
  endloop
 endfacet
 facet normal 0 -0 1
  outer loop
    vertex 3.30331 28.4007 6.0001
    vertex 3.67352 22.3685 6.0001
    vertex 3.67819 28.6131 6.0001
  endloop
 endfacet
 facet normal -0 0 1
  outer loop
    vertex 3.67819 28.6131 6.0001
    vertex 3.67352 22.3685 6.0001
    vertex 3.88151 22.1879 6.0001
  endloop
 endfacet
 facet normal 0 -0 1
  outer loop
    vertex 3.67819 28.6131 6.0001
    vertex 3.88151 22.1879 6.0001
    vertex 4.09568 28.9464 6.0001
  endloop
 endfacet
 facet normal -0 0 1
  outer loop
    vertex 4.09568 28.9464 6.0001
    vertex 3.88151 22.1879 6.0001
    vertex 4.41108 21.4737 6.0001
  endloop
 endfacet
 facet normal 0 0 1
  outer loop
    vertex 4.09568 28.9464 6.0001
    vertex 4.41108 21.4737 6.0001
    vertex 4.37908 29.2721 6.0001
  endloop
 endfacet
 facet normal 0 -0 1
  outer loop
    vertex 4.37908 29.2721 6.0001
    vertex 4.41108 21.4737 6.0001
    vertex 4.61008 29.6369 6.0001
  endloop
 endfacet
 facet normal -0 0 1
  outer loop
    vertex 4.61008 29.6369 6.0001
    vertex 4.41108 21.4737 6.0001
    vertex 4.66308 20.6889 6.0001
  endloop
 endfacet
 facet normal 0 -0 1
  outer loop
    vertex 4.61008 29.6369 6.0001
    vertex 4.66308 20.6889 6.0001
    vertex 4.78338 30.0323 6.0001
  endloop
 endfacet
 facet normal -0 0 1
  outer loop
    vertex 4.78338 30.0323 6.0001
    vertex 4.66308 20.6889 6.0001
    vertex 4.69138 20.4146 6.0001
  endloop
 endfacet
 facet normal -0 0 1
  outer loop
    vertex 4.78338 30.0323 6.0001
    vertex 4.69138 20.4146 6.0001
    vertex 4.74251 1.07039 6.0001
  endloop
 endfacet
 facet normal -0 0 1
  outer loop
    vertex 4.78338 30.0323 6.0001
    vertex 4.74251 1.07039 6.0001
    vertex 4.97102 0.605446 6.0001
  endloop
 endfacet
 facet normal 0 0 1
  outer loop
    vertex 4.78338 30.0323 6.0001
    vertex 4.97102 0.605446 6.0001
    vertex 4.89498 30.4494 6.0001
  endloop
 endfacet
 facet normal 0 0 1
  outer loop
    vertex 4.89498 30.4494 6.0001
    vertex 4.97102 0.605446 6.0001
    vertex 4.93095 30.7757 6.0001
  endloop
 endfacet
 facet normal 0 -0 1
  outer loop
    vertex 4.93095 30.7757 6.0001
    vertex 4.97102 0.605446 6.0001
    vertex 5.19968 39.9828 6.0001
  endloop
 endfacet
 facet normal -0 0 1
  outer loop
    vertex 5.19968 39.9828 6.0001
    vertex 4.97102 0.605446 6.0001
    vertex 7.67157 -7.24615 6.0001
  endloop
 endfacet
 facet normal 0 0 1
  outer loop
    vertex 5.19968 39.9828 6.0001
    vertex 7.67157 -7.24615 6.0001
    vertex 5.58068 46.5832 6.0001
  endloop
 endfacet
 facet normal 0 0 1
  outer loop
    vertex 5.58068 46.5832 6.0001
    vertex 7.67157 -7.24615 6.0001
    vertex 6.14868 46.3434 6.0001
  endloop
 endfacet
 facet normal 0 0 1
  outer loop
    vertex 6.14868 46.3434 6.0001
    vertex 7.67157 -7.24615 6.0001
    vertex 6.73448 46.1514 6.0001
  endloop
 endfacet
 facet normal 0 -0 1
  outer loop
    vertex 6.73448 46.1514 6.0001
    vertex 7.67157 -7.24615 6.0001
    vertex 10.2217 45.5265 6.0001
  endloop
 endfacet
 facet normal -0 0 1
  outer loop
    vertex 10.2217 45.5265 6.0001
    vertex 7.67157 -7.24615 6.0001
    vertex 7.9872 -17.1792 6.0001
  endloop
 endfacet
 facet normal 0 0 1
  outer loop
    vertex 10.2217 45.5265 6.0001
    vertex 7.9872 -17.1792 6.0001
    vertex 8.94418 6.49361 6.0001
  endloop
 endfacet
 facet normal 0 0 1
  outer loop
    vertex 8.94418 6.49361 6.0001
    vertex 7.9872 -17.1792 6.0001
    vertex 8.40141 -16.8613 6.0001
  endloop
 endfacet
 facet normal 0 0 1
  outer loop
    vertex 8.94418 6.49361 6.0001
    vertex 8.40141 -16.8613 6.0001
    vertex 8.88377 -16.6615 6.0001
  endloop
 endfacet
 facet normal -0 0 1
  outer loop
    vertex -4.79052 50.3887 6.0001
    vertex -10.1948 50.3887 6.0001
    vertex -4.79052 47.2887 6.0001
  endloop
 endfacet
 facet normal -0 0 1
  outer loop
    vertex -17.1948 50.3887 6.0001
    vertex -23.9948 50.3887 6.0001
    vertex -17.1948 47.2887 6.0001
  endloop
 endfacet
 facet normal -0.793352 -0.608763 0
  outer loop
    vertex 11.1335 -17.5934 6.0001
    vertex 11.3093 -17.8225 0.0001
    vertex 11.3093 -17.8225 6.0001
  endloop
 endfacet
 facet normal -0.793352 -0.608763 -0
  outer loop
    vertex 11.3093 -17.8225 0.0001
    vertex 11.1335 -17.5934 6.0001
    vertex 11.1335 -17.5934 0.0001
  endloop
 endfacet
 facet normal 0.14044 0.990089 0
  outer loop
    vertex 1.29898 28.2372 6.0001
    vertex 2.04941 28.1308 0.0001
    vertex 1.29898 28.2372 0.0001
  endloop
 endfacet
 facet normal 0.14044 0.990089 0
  outer loop
    vertex 2.04941 28.1308 0.0001
    vertex 1.29898 28.2372 6.0001
    vertex 2.04941 28.1308 6.0001
  endloop
 endfacet
 facet normal -0.0604852 0.998169 0
  outer loop
    vertex 2.04941 28.1308 6.0001
    vertex 2.47944 28.1568 0.0001
    vertex 2.04941 28.1308 0.0001
  endloop
 endfacet
 facet normal -0.0604852 0.998169 0
  outer loop
    vertex 2.47944 28.1568 0.0001
    vertex 2.04941 28.1308 6.0001
    vertex 2.47944 28.1568 6.0001
  endloop
 endfacet
 facet normal -0.210454 0.977604 0
  outer loop
    vertex 2.47944 28.1568 6.0001
    vertex 2.90063 28.2475 0.0001
    vertex 2.47944 28.1568 0.0001
  endloop
 endfacet
 facet normal -0.210454 0.977604 0
  outer loop
    vertex 2.90063 28.2475 0.0001
    vertex 2.47944 28.1568 6.0001
    vertex 2.90063 28.2475 6.0001
  endloop
 endfacet
 facet normal -0.355683 0.934606 0
  outer loop
    vertex 2.90063 28.2475 6.0001
    vertex 3.30331 28.4007 0.0001
    vertex 2.90063 28.2475 0.0001
  endloop
 endfacet
 facet normal -0.355683 0.934606 0
  outer loop
    vertex 3.30331 28.4007 0.0001
    vertex 2.90063 28.2475 6.0001
    vertex 3.30331 28.4007 6.0001
  endloop
 endfacet
 facet normal -0.492875 0.8701 0
  outer loop
    vertex 3.30331 28.4007 6.0001
    vertex 3.67819 28.6131 0.0001
    vertex 3.30331 28.4007 0.0001
  endloop
 endfacet
 facet normal -0.492875 0.8701 0
  outer loop
    vertex 3.67819 28.6131 0.0001
    vertex 3.30331 28.4007 6.0001
    vertex 3.67819 28.6131 6.0001
  endloop
 endfacet
 facet normal -0.623921 0.781487 0
  outer loop
    vertex 3.67819 28.6131 6.0001
    vertex 4.09568 28.9464 0.0001
    vertex 3.67819 28.6131 0.0001
  endloop
 endfacet
 facet normal -0.623921 0.781487 0
  outer loop
    vertex 4.09568 28.9464 0.0001
    vertex 3.67819 28.6131 6.0001
    vertex 4.09568 28.9464 6.0001
  endloop
 endfacet
 facet normal -0.754393 0.656423 0
  outer loop
    vertex 4.37908 29.2721 6.0001
    vertex 4.09568 28.9464 0.0001
    vertex 4.09568 28.9464 6.0001
  endloop
 endfacet
 facet normal -0.754393 0.656423 0
  outer loop
    vertex 4.09568 28.9464 0.0001
    vertex 4.37908 29.2721 6.0001
    vertex 4.37908 29.2721 0.0001
  endloop
 endfacet
 facet normal -0.844866 0.534979 0
  outer loop
    vertex 4.61008 29.6369 6.0001
    vertex 4.37908 29.2721 0.0001
    vertex 4.37908 29.2721 6.0001
  endloop
 endfacet
 facet normal -0.844866 0.534979 0
  outer loop
    vertex 4.37908 29.2721 0.0001
    vertex 4.61008 29.6369 6.0001
    vertex 4.61008 29.6369 0.0001
  endloop
 endfacet
 facet normal -0.91589 0.401429 0
  outer loop
    vertex 4.78338 30.0323 6.0001
    vertex 4.61008 29.6369 0.0001
    vertex 4.61008 29.6369 6.0001
  endloop
 endfacet
 facet normal -0.91589 0.401429 0
  outer loop
    vertex 4.61008 29.6369 0.0001
    vertex 4.78338 30.0323 6.0001
    vertex 4.78338 30.0323 0.0001
  endloop
 endfacet
 facet normal -0.966018 0.258476 0
  outer loop
    vertex 4.89498 30.4494 6.0001
    vertex 4.78338 30.0323 0.0001
    vertex 4.78338 30.0323 6.0001
  endloop
 endfacet
 facet normal -0.966018 0.258476 0
  outer loop
    vertex 4.78338 30.0323 0.0001
    vertex 4.89498 30.4494 6.0001
    vertex 4.89498 30.4494 0.0001
  endloop
 endfacet
 facet normal -0.993981 0.109555 0
  outer loop
    vertex 4.93095 30.7757 6.0001
    vertex 4.89498 30.4494 0.0001
    vertex 4.89498 30.4494 6.0001
  endloop
 endfacet
 facet normal -0.993981 0.109555 0
  outer loop
    vertex 4.89498 30.4494 0.0001
    vertex 4.93095 30.7757 6.0001
    vertex 4.93095 30.7757 0.0001
  endloop
 endfacet
 facet normal -0.999574 0.0291757 0
  outer loop
    vertex 5.19968 39.9828 6.0001
    vertex 4.93095 30.7757 0.0001
    vertex 4.93095 30.7757 6.0001
  endloop
 endfacet
 facet normal -0.999574 0.0291757 0
  outer loop
    vertex 4.93095 30.7757 0.0001
    vertex 5.19968 39.9828 6.0001
    vertex 5.19968 39.9828 0.0001
  endloop
 endfacet
 facet normal -0.980529 -0.196374 0
  outer loop
    vertex 4.90198 41.4693 6.0001
    vertex 5.19968 39.9828 0.0001
    vertex 5.19968 39.9828 6.0001
  endloop
 endfacet
 facet normal -0.980529 -0.196374 -0
  outer loop
    vertex 5.19968 39.9828 0.0001
    vertex 4.90198 41.4693 6.0001
    vertex 4.90198 41.4693 0.0001
  endloop
 endfacet
 facet normal 0 -1 0
  outer loop
    vertex 4.90198 41.4693 6.0001
    vertex -15.2255 41.4693 0.0001
    vertex 4.90198 41.4693 0.0001
  endloop
 endfacet
 facet normal -0 -1 0
  outer loop
    vertex -15.2255 41.4693 0.0001
    vertex 4.90198 41.4693 6.0001
    vertex -15.2255 41.4693 6.0001
  endloop
 endfacet
 facet normal 0.932044 0.362345 0
  outer loop
    vertex -15.2255 41.4693 0.0001
    vertex -12.4318 34.2831 6.0001
    vertex -12.4318 34.2831 0.0001
  endloop
 endfacet
 facet normal 0.932044 0.362345 -0
  outer loop
    vertex -12.4318 34.2831 6.0001
    vertex -15.2255 41.4693 0.0001
    vertex -15.2255 41.4693 6.0001
  endloop
 endfacet
 facet normal 0.910332 0.41388 0
  outer loop
    vertex -12.4318 34.2831 0.0001
    vertex -12.1198 33.597 6.0001
    vertex -12.1198 33.597 0.0001
  endloop
 endfacet
 facet normal 0.910332 0.41388 -0
  outer loop
    vertex -12.1198 33.597 6.0001
    vertex -12.4318 34.2831 0.0001
    vertex -12.4318 34.2831 6.0001
  endloop
 endfacet
 facet normal 0.779633 0.626237 0
  outer loop
    vertex -12.1198 33.597 0.0001
    vertex -11.6479 33.0094 6.0001
    vertex -11.6479 33.0094 0.0001
  endloop
 endfacet
 facet normal 0.779633 0.626237 -0
  outer loop
    vertex -11.6479 33.0094 6.0001
    vertex -12.1198 33.597 0.0001
    vertex -12.1198 33.597 6.0001
  endloop
 endfacet
 facet normal 0.584407 0.811461 0
  outer loop
    vertex -11.6479 33.0094 6.0001
    vertex -10.9394 32.4991 0.0001
    vertex -11.6479 33.0094 0.0001
  endloop
 endfacet
 facet normal 0.584407 0.811461 0
  outer loop
    vertex -10.9394 32.4991 0.0001
    vertex -11.6479 33.0094 6.0001
    vertex -10.9394 32.4991 6.0001
  endloop
 endfacet
 facet normal 0.423685 0.90581 0
  outer loop
    vertex -10.9394 32.4991 6.0001
    vertex -10.7112 32.3924 0.0001
    vertex -10.9394 32.4991 0.0001
  endloop
 endfacet
 facet normal 0.423685 0.90581 0
  outer loop
    vertex -10.7112 32.3924 0.0001
    vertex -10.9394 32.4991 6.0001
    vertex -10.7112 32.3924 6.0001
  endloop
 endfacet
 facet normal 0.32696 0.945038 0
  outer loop
    vertex -10.7112 32.3924 6.0001
    vertex 1.29898 28.2372 0.0001
    vertex -10.7112 32.3924 0.0001
  endloop
 endfacet
 facet normal 0.32696 0.945038 0
  outer loop
    vertex 1.29898 28.2372 0.0001
    vertex -10.7112 32.3924 6.0001
    vertex 1.29898 28.2372 6.0001
  endloop
 endfacet
 facet normal 0.154723 0.987958 0
  outer loop
    vertex -1.3858 7.6032 6.0001
    vertex -0.920319 7.5303 0.0001
    vertex -1.3858 7.6032 0.0001
  endloop
 endfacet
 facet normal 0.154723 0.987958 0
  outer loop
    vertex -0.920319 7.5303 0.0001
    vertex -1.3858 7.6032 6.0001
    vertex -0.920319 7.5303 6.0001
  endloop
 endfacet
 facet normal -0.0516775 0.998664 0
  outer loop
    vertex -0.920319 7.5303 6.0001
    vertex 2.73208 7.7193 0.0001
    vertex -0.920319 7.5303 0.0001
  endloop
 endfacet
 facet normal -0.0516775 0.998664 0
  outer loop
    vertex 2.73208 7.7193 0.0001
    vertex -0.920319 7.5303 6.0001
    vertex 2.73208 7.7193 6.0001
  endloop
 endfacet
 facet normal -0.571011 0.820943 0
  outer loop
    vertex 2.73208 7.7193 6.0001
    vertex 3.44748 8.2169 0.0001
    vertex 2.73208 7.7193 0.0001
  endloop
 endfacet
 facet normal -0.571011 0.820943 0
  outer loop
    vertex 3.44748 8.2169 0.0001
    vertex 2.73208 7.7193 6.0001
    vertex 3.44748 8.2169 6.0001
  endloop
 endfacet
 facet normal -0.72019 0.693777 0
  outer loop
    vertex 3.64968 8.4268 6.0001
    vertex 3.44748 8.2169 0.0001
    vertex 3.44748 8.2169 6.0001
  endloop
 endfacet
 facet normal -0.72019 0.693777 0
  outer loop
    vertex 3.44748 8.2169 0.0001
    vertex 3.64968 8.4268 6.0001
    vertex 3.64968 8.4268 0.0001
  endloop
 endfacet
 facet normal -0.814061 0.580779 0
  outer loop
    vertex 3.98778 8.9007 6.0001
    vertex 3.64968 8.4268 0.0001
    vertex 3.64968 8.4268 6.0001
  endloop
 endfacet
 facet normal -0.814061 0.580779 0
  outer loop
    vertex 3.64968 8.4268 0.0001
    vertex 3.98778 8.9007 6.0001
    vertex 3.98778 8.9007 0.0001
  endloop
 endfacet
 facet normal -0.930676 0.365846 0
  outer loop
    vertex 4.30658 9.7117 6.0001
    vertex 3.98778 8.9007 0.0001
    vertex 3.98778 8.9007 6.0001
  endloop
 endfacet
 facet normal -0.930676 0.365846 0
  outer loop
    vertex 3.98778 8.9007 0.0001
    vertex 4.30658 9.7117 6.0001
    vertex 4.30658 9.7117 0.0001
  endloop
 endfacet
 facet normal -0.991665 0.128841 0
  outer loop
    vertex 4.38158 10.289 6.0001
    vertex 4.30658 9.7117 0.0001
    vertex 4.30658 9.7117 6.0001
  endloop
 endfacet
 facet normal -0.991665 0.128841 0
  outer loop
    vertex 4.30658 9.7117 0.0001
    vertex 4.38158 10.289 6.0001
    vertex 4.38158 10.289 0.0001
  endloop
 endfacet
 facet normal -0.999532 0.0305813 0
  outer loop
    vertex 4.69138 20.4146 6.0001
    vertex 4.38158 10.289 0.0001
    vertex 4.38158 10.289 6.0001
  endloop
 endfacet
 facet normal -0.999532 0.0305813 0
  outer loop
    vertex 4.38158 10.289 0.0001
    vertex 4.69138 20.4146 6.0001
    vertex 4.69138 20.4146 0.0001
  endloop
 endfacet
 facet normal -0.994718 -0.102645 0
  outer loop
    vertex 4.66308 20.6889 6.0001
    vertex 4.69138 20.4146 0.0001
    vertex 4.69138 20.4146 6.0001
  endloop
 endfacet
 facet normal -0.994718 -0.102645 -0
  outer loop
    vertex 4.69138 20.4146 0.0001
    vertex 4.66308 20.6889 6.0001
    vertex 4.66308 20.6889 0.0001
  endloop
 endfacet
 facet normal -0.95212 -0.305726 0
  outer loop
    vertex 4.41108 21.4737 6.0001
    vertex 4.66308 20.6889 0.0001
    vertex 4.66308 20.6889 6.0001
  endloop
 endfacet
 facet normal -0.95212 -0.305726 -0
  outer loop
    vertex 4.66308 20.6889 0.0001
    vertex 4.41108 21.4737 6.0001
    vertex 4.41108 21.4737 0.0001
  endloop
 endfacet
 facet normal -0.803254 -0.595637 0
  outer loop
    vertex 3.88151 22.1879 6.0001
    vertex 4.41108 21.4737 0.0001
    vertex 4.41108 21.4737 6.0001
  endloop
 endfacet
 facet normal -0.803254 -0.595637 -0
  outer loop
    vertex 4.41108 21.4737 0.0001
    vertex 3.88151 22.1879 6.0001
    vertex 3.88151 22.1879 0.0001
  endloop
 endfacet
 facet normal -0.655813 -0.754924 0
  outer loop
    vertex 3.88151 22.1879 6.0001
    vertex 3.67352 22.3685 0.0001
    vertex 3.88151 22.1879 0.0001
  endloop
 endfacet
 facet normal -0.655813 -0.754924 0
  outer loop
    vertex 3.67352 22.3685 0.0001
    vertex 3.88151 22.1879 6.0001
    vertex 3.67352 22.3685 6.0001
  endloop
 endfacet
 facet normal -0.485696 -0.874128 0
  outer loop
    vertex 3.67352 22.3685 6.0001
    vertex 2.95364 22.7685 0.0001
    vertex 3.67352 22.3685 0.0001
  endloop
 endfacet
 facet normal -0.485696 -0.874128 0
  outer loop
    vertex 2.95364 22.7685 0.0001
    vertex 3.67352 22.3685 6.0001
    vertex 2.95364 22.7685 6.0001
  endloop
 endfacet
 facet normal -0.31106 -0.95039 0
  outer loop
    vertex 2.95364 22.7685 6.0001
    vertex -4.37172 25.1661 0.0001
    vertex 2.95364 22.7685 0.0001
  endloop
 endfacet
 facet normal -0.31106 -0.95039 0
  outer loop
    vertex -4.37172 25.1661 0.0001
    vertex 2.95364 22.7685 6.0001
    vertex -4.37172 25.1661 6.0001
  endloop
 endfacet
 facet normal 0.0463566 -0.998925 0
  outer loop
    vertex -4.37172 25.1661 6.0001
    vertex -4.97426 25.1381 0.0001
    vertex -4.37172 25.1661 0.0001
  endloop
 endfacet
 facet normal 0.0463566 -0.998925 0
  outer loop
    vertex -4.97426 25.1381 0.0001
    vertex -4.37172 25.1661 6.0001
    vertex -4.97426 25.1381 6.0001
  endloop
 endfacet
 facet normal 0.211851 -0.977302 0
  outer loop
    vertex -4.97426 25.1381 6.0001
    vertex -5.44971 25.0351 0.0001
    vertex -4.97426 25.1381 0.0001
  endloop
 endfacet
 facet normal 0.211851 -0.977302 0
  outer loop
    vertex -5.44971 25.0351 0.0001
    vertex -4.97426 25.1381 6.0001
    vertex -5.44971 25.0351 6.0001
  endloop
 endfacet
 facet normal 0.364814 -0.93108 0
  outer loop
    vertex -5.44971 25.0351 6.0001
    vertex -5.90262 24.8576 0.0001
    vertex -5.44971 25.0351 0.0001
  endloop
 endfacet
 facet normal 0.364814 -0.93108 0
  outer loop
    vertex -5.90262 24.8576 0.0001
    vertex -5.44971 25.0351 6.0001
    vertex -5.90262 24.8576 6.0001
  endloop
 endfacet
 facet normal 0.508233 -0.86122 0
  outer loop
    vertex -5.90262 24.8576 6.0001
    vertex -6.32158 24.6104 0.0001
    vertex -5.90262 24.8576 0.0001
  endloop
 endfacet
 facet normal 0.508233 -0.86122 0
  outer loop
    vertex -6.32158 24.6104 0.0001
    vertex -5.90262 24.8576 6.0001
    vertex -6.32158 24.6104 6.0001
  endloop
 endfacet
 facet normal 0.608884 -0.793259 0
  outer loop
    vertex -6.32158 24.6104 6.0001
    vertex -6.61572 24.3846 0.0001
    vertex -6.32158 24.6104 0.0001
  endloop
 endfacet
 facet normal 0.608884 -0.793259 0
  outer loop
    vertex -6.61572 24.3846 0.0001
    vertex -6.32158 24.6104 6.0001
    vertex -6.61572 24.3846 6.0001
  endloop
 endfacet
 facet normal 0.727418 -0.686195 0
  outer loop
    vertex -6.61572 24.3846 0.0001
    vertex -6.87016 24.1149 6.0001
    vertex -6.87016 24.1149 0.0001
  endloop
 endfacet
 facet normal 0.727418 -0.686195 0
  outer loop
    vertex -6.87016 24.1149 6.0001
    vertex -6.61572 24.3846 0.0001
    vertex -6.61572 24.3846 6.0001
  endloop
 endfacet
 facet normal 0.805392 -0.592743 0
  outer loop
    vertex -6.87016 24.1149 0.0001
    vertex -7.15852 23.7231 6.0001
    vertex -7.15852 23.7231 0.0001
  endloop
 endfacet
 facet normal 0.805392 -0.592743 0
  outer loop
    vertex -7.15852 23.7231 6.0001
    vertex -6.87016 24.1149 0.0001
    vertex -6.87016 24.1149 6.0001
  endloop
 endfacet
 facet normal 0.889463 -0.457007 0
  outer loop
    vertex -7.15852 23.7231 0.0001
    vertex -7.38084 23.2904 6.0001
    vertex -7.38084 23.2904 0.0001
  endloop
 endfacet
 facet normal 0.889463 -0.457007 0
  outer loop
    vertex -7.38084 23.2904 6.0001
    vertex -7.15852 23.7231 0.0001
    vertex -7.15852 23.7231 6.0001
  endloop
 endfacet
 facet normal 0.950837 -0.30969 0
  outer loop
    vertex -7.38084 23.2904 0.0001
    vertex -7.53151 22.8278 6.0001
    vertex -7.53151 22.8278 0.0001
  endloop
 endfacet
 facet normal 0.950837 -0.30969 0
  outer loop
    vertex -7.53151 22.8278 6.0001
    vertex -7.38084 23.2904 0.0001
    vertex -7.38084 23.2904 6.0001
  endloop
 endfacet
 facet normal 0.988008 -0.154402 0
  outer loop
    vertex -7.53151 22.8278 0.0001
    vertex -7.60661 22.3472 6.0001
    vertex -7.60661 22.3472 0.0001
  endloop
 endfacet
 facet normal 0.988008 -0.154402 0
  outer loop
    vertex -7.60661 22.3472 6.0001
    vertex -7.53151 22.8278 0.0001
    vertex -7.53151 22.8278 6.0001
  endloop
 endfacet
 facet normal -0.965674 0.259757 0
  outer loop
    vertex 18.5851 -39.6448 6.0001
    vertex 18.4427 -40.1742 0.0001
    vertex 18.4427 -40.1742 6.0001
  endloop
 endfacet
 facet normal -0.965674 0.259757 0
  outer loop
    vertex 18.4427 -40.1742 0.0001
    vertex 18.5851 -39.6448 6.0001
    vertex 18.5851 -39.6448 0.0001
  endloop
 endfacet
 facet normal -0.706376 0.707837 0
  outer loop
    vertex 17.78 -41.0359 6.0001
    vertex 18.1681 -40.6486 0.0001
    vertex 17.78 -41.0359 0.0001
  endloop
 endfacet
 facet normal -0.706376 0.707837 0
  outer loop
    vertex 18.1681 -40.6486 0.0001
    vertex 17.78 -41.0359 6.0001
    vertex 18.1681 -40.6486 6.0001
  endloop
 endfacet
 facet normal -0.865472 0.500958 0
  outer loop
    vertex 18.4427 -40.1742 6.0001
    vertex 18.1681 -40.6486 0.0001
    vertex 18.1681 -40.6486 6.0001
  endloop
 endfacet
 facet normal -0.865472 0.500958 0
  outer loop
    vertex 18.1681 -40.6486 0.0001
    vertex 18.4427 -40.1742 6.0001
    vertex 18.4427 -40.1742 0.0001
  endloop
 endfacet
 facet normal -0.499036 0.866581 0
  outer loop
    vertex 17.3049 -41.3095 6.0001
    vertex 17.78 -41.0359 0.0001
    vertex 17.3049 -41.3095 0.0001
  endloop
 endfacet
 facet normal -0.499036 0.866581 0
  outer loop
    vertex 17.78 -41.0359 0.0001
    vertex 17.3049 -41.3095 6.0001
    vertex 17.78 -41.0359 6.0001
  endloop
 endfacet
 facet normal -0.257797 0.966199 0
  outer loop
    vertex 16.7753 -41.4508 6.0001
    vertex 17.3049 -41.3095 0.0001
    vertex 16.7753 -41.4508 0.0001
  endloop
 endfacet
 facet normal -0.257797 0.966199 0
  outer loop
    vertex 17.3049 -41.3095 0.0001
    vertex 16.7753 -41.4508 6.0001
    vertex 17.3049 -41.3095 6.0001
  endloop
 endfacet
 facet normal 0.00109945 0.999999 0
  outer loop
    vertex 16.2271 -41.4502 6.0001
    vertex 16.7753 -41.4508 0.0001
    vertex 16.2271 -41.4502 0.0001
  endloop
 endfacet
 facet normal 0.00109945 0.999999 0
  outer loop
    vertex 16.7753 -41.4508 0.0001
    vertex 16.2271 -41.4502 6.0001
    vertex 16.7753 -41.4508 6.0001
  endloop
 endfacet
 facet normal 0.259741 0.965678 0
  outer loop
    vertex 15.6977 -41.3078 6.0001
    vertex 16.2271 -41.4502 0.0001
    vertex 15.6977 -41.3078 0.0001
  endloop
 endfacet
 facet normal 0.259741 0.965678 0
  outer loop
    vertex 16.2271 -41.4502 0.0001
    vertex 15.6977 -41.3078 6.0001
    vertex 16.2271 -41.4502 6.0001
  endloop
 endfacet
 facet normal 0.543804 0.839212 0
  outer loop
    vertex 15.1304 -40.9402 6.0001
    vertex 15.6977 -41.3078 0.0001
    vertex 15.1304 -40.9402 0.0001
  endloop
 endfacet
 facet normal 0.543804 0.839212 0
  outer loop
    vertex 15.6977 -41.3078 0.0001
    vertex 15.1304 -40.9402 6.0001
    vertex 15.6977 -41.3078 6.0001
  endloop
 endfacet
 facet normal 0.70793 0.706283 0
  outer loop
    vertex 14.836 -40.6451 0.0001
    vertex 15.1304 -40.9402 6.0001
    vertex 15.1304 -40.9402 0.0001
  endloop
 endfacet
 facet normal 0.70793 0.706283 -0
  outer loop
    vertex 15.1304 -40.9402 6.0001
    vertex 14.836 -40.6451 0.0001
    vertex 14.836 -40.6451 6.0001
  endloop
 endfacet
 facet normal 0.866527 0.499131 0
  outer loop
    vertex 14.5624 -40.1701 0.0001
    vertex 14.836 -40.6451 6.0001
    vertex 14.836 -40.6451 0.0001
  endloop
 endfacet
 facet normal 0.866527 0.499131 -0
  outer loop
    vertex 14.836 -40.6451 6.0001
    vertex 14.5624 -40.1701 0.0001
    vertex 14.5624 -40.1701 6.0001
  endloop
 endfacet
 facet normal 0.947692 0.319188 0
  outer loop
    vertex 7.46956 -19.111 0.0001
    vertex 14.5624 -40.1701 6.0001
    vertex 14.5624 -40.1701 0.0001
  endloop
 endfacet
 facet normal 0.947692 0.319188 -0
  outer loop
    vertex 14.5624 -40.1701 6.0001
    vertex 7.46956 -19.111 0.0001
    vertex 7.46956 -19.111 6.0001
  endloop
 endfacet
 facet normal 0.991446 0.130521 0
  outer loop
    vertex 7.40141 -18.5934 0.0001
    vertex 7.46956 -19.111 6.0001
    vertex 7.46956 -19.111 0.0001
  endloop
 endfacet
 facet normal 0.991446 0.130521 -0
  outer loop
    vertex 7.46956 -19.111 6.0001
    vertex 7.40141 -18.5934 0.0001
    vertex 7.40141 -18.5934 6.0001
  endloop
 endfacet
 facet normal 0.991445 -0.130523 0
  outer loop
    vertex 7.46956 -18.0757 0.0001
    vertex 7.40141 -18.5934 6.0001
    vertex 7.40141 -18.5934 0.0001
  endloop
 endfacet
 facet normal 0.991445 -0.130523 0
  outer loop
    vertex 7.40141 -18.5934 6.0001
    vertex 7.46956 -18.0757 0.0001
    vertex 7.46956 -18.0757 6.0001
  endloop
 endfacet
 facet normal 0.923883 -0.382675 0
  outer loop
    vertex 7.66936 -17.5934 0.0001
    vertex 7.46956 -18.0757 6.0001
    vertex 7.46956 -18.0757 0.0001
  endloop
 endfacet
 facet normal 0.923883 -0.382675 0
  outer loop
    vertex 7.46956 -18.0757 6.0001
    vertex 7.66936 -17.5934 0.0001
    vertex 7.66936 -17.5934 6.0001
  endloop
 endfacet
 facet normal 0.793346 -0.608771 0
  outer loop
    vertex 7.9872 -17.1792 0.0001
    vertex 7.66936 -17.5934 6.0001
    vertex 7.66936 -17.5934 0.0001
  endloop
 endfacet
 facet normal 0.793346 -0.608771 0
  outer loop
    vertex 7.66936 -17.5934 6.0001
    vertex 7.9872 -17.1792 0.0001
    vertex 7.9872 -17.1792 6.0001
  endloop
 endfacet
 facet normal 0.608764 -0.793351 0
  outer loop
    vertex 8.40141 -16.8613 6.0001
    vertex 7.9872 -17.1792 0.0001
    vertex 8.40141 -16.8613 0.0001
  endloop
 endfacet
 facet normal 0.608764 -0.793351 0
  outer loop
    vertex 7.9872 -17.1792 0.0001
    vertex 8.40141 -16.8613 6.0001
    vertex 7.9872 -17.1792 6.0001
  endloop
 endfacet
 facet normal 0.38268 -0.923881 0
  outer loop
    vertex 8.88377 -16.6615 6.0001
    vertex 8.40141 -16.8613 0.0001
    vertex 8.88377 -16.6615 0.0001
  endloop
 endfacet
 facet normal 0.38268 -0.923881 0
  outer loop
    vertex 8.40141 -16.8613 0.0001
    vertex 8.88377 -16.6615 6.0001
    vertex 8.40141 -16.8613 6.0001
  endloop
 endfacet
 facet normal 0.130535 -0.991444 0
  outer loop
    vertex 9.40141 -16.5934 6.0001
    vertex 8.88377 -16.6615 0.0001
    vertex 9.40141 -16.5934 0.0001
  endloop
 endfacet
 facet normal 0.130535 -0.991444 0
  outer loop
    vertex 8.88377 -16.6615 0.0001
    vertex 9.40141 -16.5934 6.0001
    vertex 8.88377 -16.6615 6.0001
  endloop
 endfacet
 facet normal -0.130537 -0.991443 0
  outer loop
    vertex 9.91904 -16.6615 6.0001
    vertex 9.40141 -16.5934 0.0001
    vertex 9.91904 -16.6615 0.0001
  endloop
 endfacet
 facet normal -0.130537 -0.991443 0
  outer loop
    vertex 9.40141 -16.5934 0.0001
    vertex 9.91904 -16.6615 6.0001
    vertex 9.40141 -16.5934 6.0001
  endloop
 endfacet
 facet normal -0.382675 -0.923883 0
  outer loop
    vertex 10.4014 -16.8613 6.0001
    vertex 9.91904 -16.6615 0.0001
    vertex 10.4014 -16.8613 0.0001
  endloop
 endfacet
 facet normal -0.382675 -0.923883 0
  outer loop
    vertex 9.91904 -16.6615 0.0001
    vertex 10.4014 -16.8613 6.0001
    vertex 9.91904 -16.6615 6.0001
  endloop
 endfacet
 facet normal -0.608771 -0.793346 0
  outer loop
    vertex 10.8156 -17.1792 6.0001
    vertex 10.4014 -16.8613 0.0001
    vertex 10.8156 -17.1792 0.0001
  endloop
 endfacet
 facet normal -0.608771 -0.793346 0
  outer loop
    vertex 10.4014 -16.8613 0.0001
    vertex 10.8156 -17.1792 6.0001
    vertex 10.4014 -16.8613 6.0001
  endloop
 endfacet
 facet normal -0.793346 -0.608771 0
  outer loop
    vertex 10.8156 -17.1792 6.0001
    vertex 11.1335 -17.5934 0.0001
    vertex 11.1335 -17.5934 6.0001
  endloop
 endfacet
 facet normal -0.793346 -0.608771 -0
  outer loop
    vertex 11.1335 -17.5934 0.0001
    vertex 10.8156 -17.1792 6.0001
    vertex 10.8156 -17.1792 0.0001
  endloop
 endfacet
 facet normal -0.945629 -0.325248 0
  outer loop
    vertex 4.97102 0.605446 6.0001
    vertex 7.67157 -7.24615 0.0001
    vertex 7.67157 -7.24615 6.0001
  endloop
 endfacet
 facet normal -0.945629 -0.325248 -0
  outer loop
    vertex 7.67157 -7.24615 0.0001
    vertex 4.97102 0.605446 6.0001
    vertex 4.97102 0.605446 0.0001
  endloop
 endfacet
endsolid solidname
